<svg width="1440" height="1024" viewBox="0 0 1440 1024" fill="none" xmlns="http://www.w3.org/2000/svg">
<rect width="1440" height="1024" fill="white"/>
<path d="M454.716 193H452.159V184.273H454.869C455.702 184.273 456.413 184.446 457.004 184.793C457.598 185.139 458.053 185.636 458.368 186.284C458.683 186.932 458.841 187.709 458.841 188.615C458.841 189.53 458.679 190.315 458.355 190.972C458.034 191.625 457.565 192.126 456.949 192.476C456.335 192.825 455.591 193 454.716 193ZM452.956 192.284H454.669C455.419 192.284 456.047 192.136 456.553 191.841C457.058 191.545 457.438 191.124 457.69 190.575C457.943 190.027 458.07 189.374 458.07 188.615C458.067 187.862 457.942 187.214 457.695 186.672C457.45 186.129 457.087 185.713 456.604 185.423C456.124 185.134 455.53 184.989 454.822 184.989H452.956V192.284ZM462.443 193.149C462.048 193.149 461.687 193.072 461.36 192.919C461.034 192.763 460.774 192.538 460.581 192.246C460.387 191.95 460.291 191.592 460.291 191.172C460.291 190.848 460.352 190.575 460.474 190.354C460.596 190.132 460.77 189.95 460.994 189.808C461.218 189.666 461.484 189.554 461.791 189.472C462.098 189.389 462.436 189.325 462.805 189.28C463.172 189.234 463.481 189.195 463.734 189.161C463.99 189.126 464.184 189.072 464.318 188.999C464.451 188.925 464.518 188.805 464.518 188.641V188.487C464.518 188.041 464.385 187.69 464.118 187.435C463.853 187.176 463.473 187.047 462.975 187.047C462.504 187.047 462.119 187.151 461.821 187.358C461.525 187.565 461.318 187.81 461.199 188.091L460.478 187.831C460.626 187.473 460.831 187.187 461.092 186.974C461.353 186.759 461.646 186.604 461.97 186.51C462.294 186.413 462.622 186.365 462.954 186.365C463.204 186.365 463.464 186.398 463.734 186.463C464.007 186.528 464.26 186.642 464.493 186.804C464.725 186.963 464.914 187.186 465.059 187.473C465.204 187.757 465.277 188.118 465.277 188.555V193H464.518V191.964H464.471C464.38 192.158 464.245 192.345 464.066 192.527C463.887 192.709 463.663 192.858 463.393 192.974C463.123 193.091 462.806 193.149 462.443 193.149ZM462.545 192.455C462.949 192.455 463.298 192.365 463.593 192.186C463.889 192.007 464.116 191.77 464.275 191.474C464.437 191.176 464.518 190.848 464.518 190.49V189.544C464.461 189.598 464.366 189.646 464.233 189.689C464.102 189.732 463.95 189.77 463.777 189.804C463.606 189.835 463.436 189.862 463.265 189.885C463.095 189.908 462.941 189.928 462.805 189.945C462.436 189.99 462.12 190.061 461.859 190.158C461.598 190.254 461.397 190.388 461.258 190.558C461.119 190.726 461.049 190.942 461.049 191.206C461.049 191.604 461.191 191.912 461.475 192.131C461.76 192.347 462.116 192.455 462.545 192.455ZM467.588 195.455C467.438 195.455 467.297 195.44 467.167 195.412C467.036 195.384 466.932 195.352 466.855 195.318L467.06 194.649C467.319 194.729 467.549 194.757 467.75 194.734C467.952 194.714 468.131 194.624 468.287 194.462C468.444 194.303 468.583 194.058 468.705 193.729L468.944 193.064L466.536 186.455H467.358L469.301 191.999H469.361L471.304 186.455H472.127L469.357 194.036C469.24 194.351 469.097 194.614 468.926 194.824C468.756 195.037 468.559 195.195 468.334 195.297C468.113 195.402 467.864 195.455 467.588 195.455ZM479.53 191.347V185.947H480.259V191.347H479.53ZM477.195 189.011V188.283H482.594V189.011H477.195ZM487.806 184.989V184.273H494.135V184.989H491.369V193H490.572V184.989H487.806ZM495.779 193V186.455H496.542V193H495.779ZM496.167 185.33C496.011 185.33 495.877 185.277 495.767 185.172C495.656 185.064 495.6 184.935 495.6 184.784C495.6 184.634 495.656 184.506 495.767 184.401C495.877 184.293 496.011 184.239 496.167 184.239C496.324 184.239 496.457 184.293 496.568 184.401C496.679 184.506 496.734 184.634 496.734 184.784C496.734 184.935 496.679 185.064 496.568 185.172C496.457 185.277 496.324 185.33 496.167 185.33ZM498.548 193V186.455H499.286V187.46H499.354C499.484 187.122 499.702 186.857 500.006 186.663C500.313 186.467 500.68 186.369 501.109 186.369C501.561 186.369 501.932 186.476 502.222 186.689C502.514 186.899 502.733 187.189 502.878 187.558H502.933C503.081 187.195 503.321 186.906 503.653 186.693C503.989 186.477 504.395 186.369 504.872 186.369C505.48 186.369 505.96 186.561 506.312 186.945C506.665 187.325 506.841 187.882 506.841 188.615V193H506.082V188.615C506.082 188.098 505.95 187.71 505.686 187.452C505.422 187.193 505.074 187.064 504.642 187.064C504.142 187.064 503.757 187.217 503.487 187.524C503.217 187.831 503.082 188.22 503.082 188.692V193H502.307V188.547C502.307 188.104 502.183 187.746 501.936 187.473C501.689 187.2 501.341 187.064 500.892 187.064C500.591 187.064 500.32 187.138 500.078 187.286C499.839 187.433 499.651 187.639 499.511 187.903C499.375 188.165 499.307 188.466 499.307 188.807V193H498.548ZM511.495 193.136C510.885 193.136 510.356 192.994 509.91 192.71C509.464 192.423 509.119 192.027 508.875 191.521C508.633 191.013 508.512 190.428 508.512 189.766C508.512 189.107 508.633 188.521 508.875 188.01C509.119 187.496 509.456 187.094 509.885 186.804C510.316 186.511 510.815 186.365 511.38 186.365C511.735 186.365 512.078 186.43 512.407 186.561C512.737 186.689 513.032 186.886 513.294 187.153C513.558 187.418 513.767 187.751 513.92 188.155C514.074 188.555 514.15 189.03 514.15 189.578V189.953H509.037V189.284H513.375C513.375 188.864 513.289 188.486 513.119 188.151C512.951 187.812 512.717 187.545 512.416 187.349C512.118 187.153 511.772 187.055 511.38 187.055C510.966 187.055 510.6 187.166 510.285 187.388C509.97 187.609 509.723 187.902 509.544 188.266C509.368 188.629 509.278 189.027 509.275 189.459V189.859C509.275 190.379 509.365 190.834 509.544 191.223C509.725 191.609 509.983 191.909 510.315 192.122C510.647 192.335 511.041 192.442 511.495 192.442C511.805 192.442 512.076 192.393 512.309 192.297C512.545 192.2 512.743 192.071 512.902 191.909C513.064 191.744 513.186 191.564 513.268 191.368L513.988 191.602C513.889 191.878 513.725 192.132 513.498 192.365C513.274 192.598 512.993 192.786 512.654 192.928C512.319 193.067 511.933 193.136 511.495 193.136ZM538.147 193L537.644 192.501L540.61 189.54H533.195V188.824H540.61L537.644 185.862L538.147 185.364L541.965 189.182L538.147 193ZM561.191 193H560.356L563.531 184.273H564.383L567.558 193H566.723L563.987 185.308H563.927L561.191 193ZM561.792 189.655H566.122V190.371H561.792V189.655ZM571.453 193.136C570.868 193.136 570.358 192.99 569.923 192.697C569.491 192.405 569.156 192.004 568.917 191.496C568.679 190.987 568.559 190.408 568.559 189.757C568.559 189.101 568.68 188.517 568.922 188.006C569.166 187.494 569.504 187.094 569.936 186.804C570.368 186.511 570.869 186.365 571.44 186.365C571.877 186.365 572.274 186.45 572.629 186.621C572.984 186.788 573.277 187.026 573.507 187.332C573.74 187.636 573.886 187.991 573.946 188.398H573.179C573.099 188.028 572.907 187.713 572.603 187.452C572.302 187.187 571.919 187.055 571.453 187.055C571.035 187.055 570.666 187.169 570.345 187.396C570.024 187.621 569.772 187.935 569.591 188.338C569.412 188.739 569.322 189.203 569.322 189.732C569.322 190.263 569.41 190.733 569.586 191.142C569.762 191.548 570.01 191.866 570.328 192.097C570.649 192.327 571.024 192.442 571.453 192.442C571.743 192.442 572.007 192.388 572.245 192.28C572.487 192.169 572.689 192.013 572.85 191.811C573.015 191.609 573.126 191.369 573.183 191.091H573.95C573.893 191.486 573.752 191.838 573.528 192.148C573.306 192.455 573.018 192.696 572.663 192.872C572.311 193.048 571.907 193.136 571.453 193.136ZM578.154 186.455V187.115H575.03V186.455H578.154ZM576.006 184.886H576.769V191.291C576.769 191.564 576.816 191.778 576.909 191.935C577.003 192.088 577.125 192.197 577.276 192.263C577.426 192.325 577.587 192.357 577.757 192.357C577.857 192.357 577.942 192.351 578.013 192.339C578.084 192.325 578.147 192.311 578.201 192.297L578.363 192.983C578.289 193.011 578.198 193.037 578.09 193.06C577.982 193.085 577.848 193.098 577.689 193.098C577.411 193.098 577.142 193.037 576.884 192.915C576.628 192.793 576.418 192.611 576.253 192.369C576.088 192.128 576.006 191.828 576.006 191.47V184.886ZM579.885 193V186.455H580.648V193H579.885ZM580.273 185.33C580.116 185.33 579.983 185.277 579.872 185.172C579.761 185.064 579.706 184.935 579.706 184.784C579.706 184.634 579.761 184.506 579.872 184.401C579.983 184.293 580.116 184.239 580.273 184.239C580.429 184.239 580.563 184.293 580.673 184.401C580.784 184.506 580.839 184.634 580.839 184.784C580.839 184.935 580.784 185.064 580.673 185.172C580.563 185.277 580.429 185.33 580.273 185.33ZM587.721 186.455L585.33 193H584.52L582.13 186.455H582.952L584.895 191.999H584.955L586.898 186.455H587.721ZM591.616 193.136C591.006 193.136 590.477 192.994 590.031 192.71C589.585 192.423 589.24 192.027 588.996 191.521C588.754 191.013 588.634 190.428 588.634 189.766C588.634 189.107 588.754 188.521 588.996 188.01C589.24 187.496 589.577 187.094 590.006 186.804C590.438 186.511 590.936 186.365 591.501 186.365C591.857 186.365 592.199 186.43 592.528 186.561C592.858 186.689 593.153 186.886 593.415 187.153C593.679 187.418 593.888 187.751 594.041 188.155C594.195 188.555 594.271 189.03 594.271 189.578V189.953H589.158V189.284H593.496C593.496 188.864 593.411 188.486 593.24 188.151C593.072 187.812 592.838 187.545 592.537 187.349C592.239 187.153 591.893 187.055 591.501 187.055C591.087 187.055 590.722 187.166 590.406 187.388C590.091 187.609 589.844 187.902 589.665 188.266C589.489 188.629 589.399 189.027 589.396 189.459V189.859C589.396 190.379 589.486 190.834 589.665 191.223C589.847 191.609 590.104 191.909 590.436 192.122C590.768 192.335 591.162 192.442 591.616 192.442C591.926 192.442 592.197 192.393 592.43 192.297C592.666 192.2 592.864 192.071 593.023 191.909C593.185 191.744 593.307 191.564 593.389 191.368L594.109 191.602C594.01 191.878 593.847 192.132 593.619 192.365C593.395 192.598 593.114 192.786 592.776 192.928C592.44 193.067 592.054 193.136 591.616 193.136ZM599.488 193H598.653L601.828 184.273H602.68L605.855 193H605.02L602.284 185.308H602.224L599.488 193ZM600.089 189.655H604.419V190.371H600.089V189.655ZM609.75 193.136C609.164 193.136 608.654 192.99 608.22 192.697C607.788 192.405 607.453 192.004 607.214 191.496C606.975 190.987 606.856 190.408 606.856 189.757C606.856 189.101 606.977 188.517 607.218 188.006C607.463 187.494 607.801 187.094 608.233 186.804C608.664 186.511 609.166 186.365 609.737 186.365C610.174 186.365 610.571 186.45 610.926 186.621C611.281 186.788 611.574 187.026 611.804 187.332C612.037 187.636 612.183 187.991 612.243 188.398H611.475C611.396 188.028 611.204 187.713 610.9 187.452C610.599 187.187 610.216 187.055 609.75 187.055C609.332 187.055 608.963 187.169 608.642 187.396C608.321 187.621 608.069 187.935 607.887 188.338C607.708 188.739 607.619 189.203 607.619 189.732C607.619 190.263 607.707 190.733 607.883 191.142C608.059 191.548 608.306 191.866 608.625 192.097C608.946 192.327 609.321 192.442 609.75 192.442C610.039 192.442 610.304 192.388 610.542 192.28C610.784 192.169 610.985 192.013 611.147 191.811C611.312 191.609 611.423 191.369 611.48 191.091H612.247C612.19 191.486 612.049 191.838 611.825 192.148C611.603 192.455 611.315 192.696 610.96 192.872C610.608 193.048 610.204 193.136 609.75 193.136ZM616.451 186.455V187.115H613.327V186.455H616.451ZM614.303 184.886H615.066V191.291C615.066 191.564 615.113 191.778 615.206 191.935C615.3 192.088 615.422 192.197 615.573 192.263C615.723 192.325 615.884 192.357 616.054 192.357C616.154 192.357 616.239 192.351 616.31 192.339C616.381 192.325 616.444 192.311 616.498 192.297L616.659 192.983C616.586 193.011 616.495 193.037 616.387 193.06C616.279 193.085 616.145 193.098 615.986 193.098C615.708 193.098 615.439 193.037 615.181 192.915C614.925 192.793 614.715 192.611 614.55 192.369C614.385 192.128 614.303 191.828 614.303 191.47V184.886ZM618.182 193V186.455H618.945V193H618.182ZM618.57 185.33C618.413 185.33 618.28 185.277 618.169 185.172C618.058 185.064 618.003 184.935 618.003 184.784C618.003 184.634 618.058 184.506 618.169 184.401C618.28 184.293 618.413 184.239 618.57 184.239C618.726 184.239 618.859 184.293 618.97 184.401C619.081 184.506 619.136 184.634 619.136 184.784C619.136 184.935 619.081 185.064 618.97 185.172C618.859 185.277 618.726 185.33 618.57 185.33ZM626.017 186.455L623.627 193H622.817L620.426 186.455H621.249L623.192 191.999H623.252L625.195 186.455H626.017ZM627.51 193V186.455H628.273V193H627.51ZM627.898 185.33C627.741 185.33 627.608 185.277 627.497 185.172C627.386 185.064 627.331 184.935 627.331 184.784C627.331 184.634 627.386 184.506 627.497 184.401C627.608 184.293 627.741 184.239 627.898 184.239C628.054 184.239 628.188 184.293 628.298 184.401C628.409 184.506 628.464 184.634 628.464 184.784C628.464 184.935 628.409 185.064 628.298 185.172C628.188 185.277 628.054 185.33 627.898 185.33ZM632.857 186.455V187.115H629.733V186.455H632.857ZM630.709 184.886H631.472V191.291C631.472 191.564 631.519 191.778 631.613 191.935C631.706 192.088 631.828 192.197 631.979 192.263C632.13 192.325 632.29 192.357 632.461 192.357C632.56 192.357 632.645 192.351 632.716 192.339C632.787 192.325 632.85 192.311 632.904 192.297L633.066 192.983C632.992 193.011 632.901 193.037 632.793 193.06C632.685 193.085 632.551 193.098 632.392 193.098C632.114 193.098 631.846 193.037 631.587 192.915C631.331 192.793 631.121 192.611 630.956 192.369C630.792 192.128 630.709 191.828 630.709 191.47V184.886ZM634.588 193V186.455H635.351V193H634.588ZM634.976 185.33C634.82 185.33 634.686 185.277 634.575 185.172C634.464 185.064 634.409 184.935 634.409 184.784C634.409 184.634 634.464 184.506 634.575 184.401C634.686 184.293 634.82 184.239 634.976 184.239C635.132 184.239 635.266 184.293 635.376 184.401C635.487 184.506 635.543 184.634 635.543 184.784C635.543 184.935 635.487 185.064 635.376 185.172C635.266 185.277 635.132 185.33 634.976 185.33ZM640.003 193.136C639.392 193.136 638.864 192.994 638.418 192.71C637.972 192.423 637.627 192.027 637.382 191.521C637.141 191.013 637.02 190.428 637.02 189.766C637.02 189.107 637.141 188.521 637.382 188.01C637.627 187.496 637.963 187.094 638.392 186.804C638.824 186.511 639.323 186.365 639.888 186.365C640.243 186.365 640.586 186.43 640.915 186.561C641.245 186.689 641.54 186.886 641.801 187.153C642.066 187.418 642.275 187.751 642.428 188.155C642.581 188.555 642.658 189.03 642.658 189.578V189.953H637.544V189.284H641.882C641.882 188.864 641.797 188.486 641.627 188.151C641.459 187.812 641.225 187.545 640.924 187.349C640.625 187.153 640.28 187.055 639.888 187.055C639.473 187.055 639.108 187.166 638.793 187.388C638.478 187.609 638.23 187.902 638.051 188.266C637.875 188.629 637.786 189.027 637.783 189.459V189.859C637.783 190.379 637.873 190.834 638.051 191.223C638.233 191.609 638.49 191.909 638.823 192.122C639.155 192.335 639.549 192.442 640.003 192.442C640.313 192.442 640.584 192.393 640.817 192.297C641.053 192.2 641.25 192.071 641.409 191.909C641.571 191.744 641.694 191.564 641.776 191.368L642.496 191.602C642.397 191.878 642.233 192.132 642.006 192.365C641.782 192.598 641.5 192.786 641.162 192.928C640.827 193.067 640.441 193.136 640.003 193.136ZM648.727 187.891L648.033 188.087C647.964 187.891 647.868 187.713 647.743 187.554C647.618 187.395 647.455 187.268 647.253 187.175C647.054 187.081 646.807 187.034 646.511 187.034C646.068 187.034 645.705 187.139 645.42 187.349C645.136 187.56 644.994 187.831 644.994 188.163C644.994 188.445 645.091 188.673 645.284 188.849C645.48 189.023 645.781 189.161 646.188 189.263L647.176 189.506C647.724 189.639 648.135 189.851 648.408 190.141C648.683 190.43 648.821 190.794 648.821 191.232C648.821 191.601 648.719 191.929 648.514 192.216C648.31 192.503 648.024 192.729 647.658 192.893C647.294 193.055 646.872 193.136 646.392 193.136C645.753 193.136 645.226 192.993 644.811 192.706C644.396 192.416 644.131 191.999 644.014 191.453L644.743 191.274C644.837 191.663 645.02 191.957 645.293 192.156C645.568 192.355 645.93 192.455 646.379 192.455C646.882 192.455 647.284 192.342 647.585 192.118C647.886 191.891 648.037 191.607 648.037 191.266C648.037 191.001 647.949 190.78 647.773 190.601C647.597 190.419 647.33 190.286 646.972 190.2L645.902 189.945C645.334 189.808 644.913 189.592 644.641 189.297C644.368 189.001 644.232 188.635 644.232 188.197C644.232 187.837 644.33 187.52 644.526 187.247C644.722 186.972 644.991 186.756 645.335 186.599C645.679 186.443 646.071 186.365 646.511 186.365C647.111 186.365 647.589 186.501 647.947 186.774C648.308 187.044 648.568 187.416 648.727 187.891ZM672.807 193L672.304 192.501L675.27 189.54H667.855V188.824H675.27L672.304 185.862L672.807 185.364L676.625 189.182L672.807 193ZM695.852 193H695.016L698.191 184.273H699.043L702.218 193H701.383L698.647 185.308H698.587L695.852 193ZM696.452 189.655H700.782V190.371H696.452V189.655ZM706.113 193.136C705.528 193.136 705.018 192.99 704.583 192.697C704.151 192.405 703.816 192.004 703.577 191.496C703.339 190.987 703.219 190.408 703.219 189.757C703.219 189.101 703.34 188.517 703.582 188.006C703.826 187.494 704.164 187.094 704.596 186.804C705.028 186.511 705.529 186.365 706.1 186.365C706.538 186.365 706.934 186.45 707.289 186.621C707.644 186.788 707.937 187.026 708.167 187.332C708.4 187.636 708.546 187.991 708.606 188.398H707.839C707.759 188.028 707.567 187.713 707.263 187.452C706.962 187.187 706.579 187.055 706.113 187.055C705.695 187.055 705.326 187.169 705.005 187.396C704.684 187.621 704.433 187.935 704.251 188.338C704.072 188.739 703.982 189.203 703.982 189.732C703.982 190.263 704.07 190.733 704.246 191.142C704.423 191.548 704.67 191.866 704.988 192.097C705.309 192.327 705.684 192.442 706.113 192.442C706.403 192.442 706.667 192.388 706.906 192.28C707.147 192.169 707.349 192.013 707.511 191.811C707.675 191.609 707.786 191.369 707.843 191.091H708.61C708.553 191.486 708.413 191.838 708.188 192.148C707.967 192.455 707.678 192.696 707.323 192.872C706.971 193.048 706.567 193.136 706.113 193.136ZM712.814 186.455V187.115H709.69V186.455H712.814ZM710.666 184.886H711.429V191.291C711.429 191.564 711.476 191.778 711.57 191.935C711.663 192.088 711.786 192.197 711.936 192.263C712.087 192.325 712.247 192.357 712.418 192.357C712.517 192.357 712.602 192.351 712.673 192.339C712.744 192.325 712.807 192.311 712.861 192.297L713.023 192.983C712.949 193.011 712.858 193.037 712.75 193.06C712.642 193.085 712.509 193.098 712.349 193.098C712.071 193.098 711.803 193.037 711.544 192.915C711.288 192.793 711.078 192.611 710.913 192.369C710.749 192.128 710.666 191.828 710.666 191.47V184.886ZM714.545 193V186.455H715.308V193H714.545ZM714.933 185.33C714.777 185.33 714.643 185.277 714.532 185.172C714.422 185.064 714.366 184.935 714.366 184.784C714.366 184.634 714.422 184.506 714.532 184.401C714.643 184.293 714.777 184.239 714.933 184.239C715.089 184.239 715.223 184.293 715.333 184.401C715.444 184.506 715.5 184.634 715.5 184.784C715.5 184.935 715.444 185.064 715.333 185.172C715.223 185.277 715.089 185.33 714.933 185.33ZM722.381 186.455L719.99 193H719.18L716.79 186.455H717.612L719.555 191.999H719.615L721.558 186.455H722.381ZM723.873 193V186.455H724.636V193H723.873ZM724.261 185.33C724.105 185.33 723.971 185.277 723.86 185.172C723.75 185.064 723.694 184.935 723.694 184.784C723.694 184.634 723.75 184.506 723.86 184.401C723.971 184.293 724.105 184.239 724.261 184.239C724.417 184.239 724.551 184.293 724.662 184.401C724.772 184.506 724.828 184.634 724.828 184.784C724.828 184.935 724.772 185.064 724.662 185.172C724.551 185.277 724.417 185.33 724.261 185.33ZM729.22 186.455V187.115H726.097V186.455H729.22ZM727.072 184.886H727.835V191.291C727.835 191.564 727.882 191.778 727.976 191.935C728.07 192.088 728.192 192.197 728.342 192.263C728.493 192.325 728.653 192.357 728.824 192.357C728.923 192.357 729.009 192.351 729.08 192.339C729.151 192.325 729.213 192.311 729.267 192.297L729.429 192.983C729.355 193.011 729.264 193.037 729.156 193.06C729.048 193.085 728.915 193.098 728.756 193.098C728.477 193.098 728.209 193.037 727.95 192.915C727.695 192.793 727.484 192.611 727.32 192.369C727.155 192.128 727.072 191.828 727.072 191.47V184.886ZM731.471 195.455C731.321 195.455 731.18 195.44 731.049 195.412C730.919 195.384 730.815 195.352 730.738 195.318L730.943 194.649C731.201 194.729 731.431 194.757 731.633 194.734C731.835 194.714 732.014 194.624 732.17 194.462C732.326 194.303 732.466 194.058 732.588 193.729L732.826 193.064L730.419 186.455H731.241L733.184 191.999H733.244L735.187 186.455H736.01L733.24 194.036C733.123 194.351 732.98 194.614 732.809 194.824C732.639 195.037 732.441 195.195 732.217 195.297C731.995 195.402 731.747 195.455 731.471 195.455ZM743.583 193H741.026V184.273H743.737C744.569 184.273 745.281 184.446 745.871 184.793C746.465 185.139 746.92 185.636 747.235 186.284C747.55 186.932 747.708 187.709 747.708 188.615C747.708 189.53 747.546 190.315 747.222 190.972C746.901 191.625 746.433 192.126 745.816 192.476C745.202 192.825 744.458 193 743.583 193ZM741.823 192.284H743.536C744.286 192.284 744.914 192.136 745.42 191.841C745.925 191.545 746.305 191.124 746.558 190.575C746.81 190.027 746.937 189.374 746.937 188.615C746.934 187.862 746.809 187.214 746.562 186.672C746.317 186.129 745.954 185.713 745.471 185.423C744.991 185.134 744.397 184.989 743.69 184.989H741.823V192.284ZM752.128 193.136C751.517 193.136 750.989 192.994 750.543 192.71C750.097 192.423 749.752 192.027 749.507 191.521C749.266 191.013 749.145 190.428 749.145 189.766C749.145 189.107 749.266 188.521 749.507 188.01C749.752 187.496 750.088 187.094 750.517 186.804C750.949 186.511 751.448 186.365 752.013 186.365C752.368 186.365 752.711 186.43 753.04 186.561C753.37 186.689 753.665 186.886 753.926 187.153C754.191 187.418 754.4 187.751 754.553 188.155C754.706 188.555 754.783 189.03 754.783 189.578V189.953H749.669V189.284H754.007C754.007 188.864 753.922 188.486 753.752 188.151C753.584 187.812 753.35 187.545 753.049 187.349C752.75 187.153 752.405 187.055 752.013 187.055C751.598 187.055 751.233 187.166 750.918 187.388C750.603 187.609 750.355 187.902 750.176 188.266C750 188.629 749.911 189.027 749.908 189.459V189.859C749.908 190.379 749.998 190.834 750.176 191.223C750.358 191.609 750.615 191.909 750.948 192.122C751.28 192.335 751.674 192.442 752.128 192.442C752.438 192.442 752.709 192.393 752.942 192.297C753.178 192.2 753.375 192.071 753.534 191.909C753.696 191.744 753.819 191.564 753.901 191.368L754.621 191.602C754.522 191.878 754.358 192.132 754.131 192.365C753.907 192.598 753.625 192.786 753.287 192.928C752.952 193.067 752.566 193.136 752.128 193.136ZM757.213 188.909V193H756.455V186.455H757.192V187.482H757.26C757.413 187.146 757.652 186.878 757.976 186.676C758.303 186.472 758.706 186.369 759.186 186.369C759.626 186.369 760.013 186.462 760.345 186.646C760.68 186.828 760.94 187.097 761.125 187.452C761.312 187.807 761.406 188.243 761.406 188.76V193H760.648V188.807C760.648 188.27 760.497 187.845 760.196 187.533C759.898 187.22 759.497 187.064 758.994 187.064C758.651 187.064 758.345 187.138 758.078 187.286C757.811 187.433 757.599 187.646 757.443 187.925C757.29 188.2 757.213 188.528 757.213 188.909ZM767.801 187.891L767.107 188.087C767.039 187.891 766.942 187.713 766.817 187.554C766.692 187.395 766.529 187.268 766.327 187.175C766.128 187.081 765.881 187.034 765.586 187.034C765.142 187.034 764.779 187.139 764.495 187.349C764.211 187.56 764.069 187.831 764.069 188.163C764.069 188.445 764.165 188.673 764.358 188.849C764.554 189.023 764.855 189.161 765.262 189.263L766.25 189.506C766.799 189.639 767.209 189.851 767.482 190.141C767.757 190.43 767.895 190.794 767.895 191.232C767.895 191.601 767.793 191.929 767.588 192.216C767.384 192.503 767.098 192.729 766.732 192.893C766.368 193.055 765.946 193.136 765.466 193.136C764.827 193.136 764.3 192.993 763.885 192.706C763.471 192.416 763.205 191.999 763.088 191.453L763.817 191.274C763.911 191.663 764.094 191.957 764.367 192.156C764.642 192.355 765.005 192.455 765.453 192.455C765.956 192.455 766.358 192.342 766.659 192.118C766.961 191.891 767.111 191.607 767.111 191.266C767.111 191.001 767.023 190.78 766.847 190.601C766.671 190.419 766.404 190.286 766.046 190.2L764.976 189.945C764.408 189.808 763.988 189.592 763.715 189.297C763.442 189.001 763.306 188.635 763.306 188.197C763.306 187.837 763.404 187.52 763.6 187.247C763.796 186.972 764.066 186.756 764.409 186.599C764.753 186.443 765.145 186.365 765.586 186.365C766.185 186.365 766.664 186.501 767.022 186.774C767.382 187.044 767.642 187.416 767.801 187.891ZM769.565 193V186.455H770.327V193H769.565ZM769.952 185.33C769.796 185.33 769.663 185.277 769.552 185.172C769.441 185.064 769.386 184.935 769.386 184.784C769.386 184.634 769.441 184.506 769.552 184.401C769.663 184.293 769.796 184.239 769.952 184.239C770.109 184.239 770.242 184.293 770.353 184.401C770.464 184.506 770.519 184.634 770.519 184.784C770.519 184.935 770.464 185.064 770.353 185.172C770.242 185.277 770.109 185.33 769.952 185.33ZM774.912 186.455V187.115H771.788V186.455H774.912ZM772.764 184.886H773.527V191.291C773.527 191.564 773.574 191.778 773.667 191.935C773.761 192.088 773.883 192.197 774.034 192.263C774.184 192.325 774.345 192.357 774.515 192.357C774.615 192.357 774.7 192.351 774.771 192.339C774.842 192.325 774.904 192.311 774.958 192.297L775.12 192.983C775.047 193.011 774.956 193.037 774.848 193.06C774.74 193.085 774.606 193.098 774.447 193.098C774.169 193.098 773.9 193.037 773.642 192.915C773.386 192.793 773.176 192.611 773.011 192.369C772.846 192.128 772.764 191.828 772.764 191.47V184.886ZM777.163 195.455C777.012 195.455 776.871 195.44 776.741 195.412C776.61 195.384 776.506 195.352 776.43 195.318L776.634 194.649C776.893 194.729 777.123 194.757 777.325 194.734C777.526 194.714 777.705 194.624 777.862 194.462C778.018 194.303 778.157 194.058 778.279 193.729L778.518 193.064L776.11 186.455H776.933L778.876 191.999H778.935L780.879 186.455H781.701L778.931 194.036C778.815 194.351 778.671 194.614 778.501 194.824C778.33 195.037 778.133 195.195 777.908 195.297C777.687 195.402 777.438 195.455 777.163 195.455ZM805.51 193L805.007 192.501L807.973 189.54H800.559V188.824H807.973L805.007 185.862L805.51 185.364L809.328 189.182L805.51 193ZM835.377 187H834.576C834.516 186.702 834.408 186.426 834.252 186.173C834.099 185.918 833.906 185.695 833.673 185.504C833.44 185.314 833.175 185.166 832.88 185.061C832.585 184.956 832.265 184.903 831.921 184.903C831.37 184.903 830.867 185.047 830.413 185.334C829.961 185.621 829.599 186.043 829.326 186.599C829.056 187.153 828.921 187.832 828.921 188.636C828.921 189.446 829.056 190.128 829.326 190.682C829.599 191.236 829.961 191.656 830.413 191.943C830.867 192.227 831.37 192.369 831.921 192.369C832.265 192.369 832.585 192.317 832.88 192.212C833.175 192.107 833.44 191.96 833.673 191.773C833.906 191.582 834.099 191.359 834.252 191.104C834.408 190.848 834.516 190.571 834.576 190.273H835.377C835.306 190.673 835.173 191.047 834.977 191.393C834.783 191.737 834.536 192.038 834.235 192.297C833.937 192.555 833.593 192.757 833.204 192.902C832.815 193.047 832.387 193.119 831.921 193.119C831.188 193.119 830.538 192.936 829.969 192.57C829.401 192.2 828.955 191.68 828.631 191.01C828.31 190.339 828.15 189.548 828.15 188.636C828.15 187.724 828.31 186.933 828.631 186.263C828.955 185.592 829.401 185.074 829.969 184.707C830.538 184.338 831.188 184.153 831.921 184.153C832.387 184.153 832.815 184.226 833.204 184.371C833.593 184.513 833.937 184.714 834.235 184.976C834.536 185.234 834.783 185.536 834.977 185.879C835.173 186.223 835.306 186.597 835.377 187ZM838.919 193.149C838.525 193.149 838.164 193.072 837.837 192.919C837.51 192.763 837.25 192.538 837.057 192.246C836.864 191.95 836.767 191.592 836.767 191.172C836.767 190.848 836.828 190.575 836.951 190.354C837.073 190.132 837.246 189.95 837.471 189.808C837.695 189.666 837.961 189.554 838.267 189.472C838.574 189.389 838.912 189.325 839.282 189.28C839.648 189.234 839.958 189.195 840.211 189.161C840.466 189.126 840.661 189.072 840.794 188.999C840.928 188.925 840.995 188.805 840.995 188.641V188.487C840.995 188.041 840.861 187.69 840.594 187.435C840.33 187.176 839.949 187.047 839.452 187.047C838.98 187.047 838.596 187.151 838.297 187.358C838.002 187.565 837.794 187.81 837.675 188.091L836.955 187.831C837.103 187.473 837.307 187.187 837.569 186.974C837.83 186.759 838.123 186.604 838.446 186.51C838.77 186.413 839.098 186.365 839.431 186.365C839.681 186.365 839.941 186.398 840.211 186.463C840.483 186.528 840.736 186.642 840.969 186.804C841.202 186.963 841.391 187.186 841.536 187.473C841.681 187.757 841.753 188.118 841.753 188.555V193H840.995V191.964H840.948C840.857 192.158 840.722 192.345 840.543 192.527C840.364 192.709 840.14 192.858 839.87 192.974C839.6 193.091 839.283 193.149 838.919 193.149ZM839.022 192.455C839.425 192.455 839.775 192.365 840.07 192.186C840.365 192.007 840.593 191.77 840.752 191.474C840.914 191.176 840.995 190.848 840.995 190.49V189.544C840.938 189.598 840.843 189.646 840.709 189.689C840.578 189.732 840.426 189.77 840.253 189.804C840.083 189.835 839.912 189.862 839.742 189.885C839.571 189.908 839.418 189.928 839.282 189.945C838.912 189.99 838.597 190.061 838.336 190.158C838.074 190.254 837.874 190.388 837.735 190.558C837.596 190.726 837.526 190.942 837.526 191.206C837.526 191.604 837.668 191.912 837.952 192.131C838.236 192.347 838.593 192.455 839.022 192.455ZM846.349 186.455V187.115H843.225V186.455H846.349ZM844.201 184.886H844.964V191.291C844.964 191.564 845.011 191.778 845.105 191.935C845.199 192.088 845.321 192.197 845.471 192.263C845.622 192.325 845.782 192.357 845.953 192.357C846.052 192.357 846.137 192.351 846.208 192.339C846.279 192.325 846.342 192.311 846.396 192.297L846.558 192.983C846.484 193.011 846.393 193.037 846.285 193.06C846.177 193.085 846.044 193.098 845.885 193.098C845.606 193.098 845.338 193.037 845.079 192.915C844.824 192.793 844.613 192.611 844.449 192.369C844.284 192.128 844.201 191.828 844.201 191.47V184.886ZM850.648 193.136C850.037 193.136 849.509 192.994 849.062 192.71C848.616 192.423 848.271 192.027 848.027 191.521C847.786 191.013 847.665 190.428 847.665 189.766C847.665 189.107 847.786 188.521 848.027 188.01C848.271 187.496 848.608 187.094 849.037 186.804C849.469 186.511 849.967 186.365 850.533 186.365C850.888 186.365 851.23 186.43 851.56 186.561C851.889 186.689 852.185 186.886 852.446 187.153C852.71 187.418 852.919 187.751 853.072 188.155C853.226 188.555 853.303 189.03 853.303 189.578V189.953H848.189V189.284H852.527C852.527 188.864 852.442 188.486 852.271 188.151C852.104 187.812 851.869 187.545 851.568 187.349C851.27 187.153 850.925 187.055 850.533 187.055C850.118 187.055 849.753 187.166 849.438 187.388C849.122 187.609 848.875 187.902 848.696 188.266C848.52 188.629 848.43 189.027 848.428 189.459V189.859C848.428 190.379 848.517 190.834 848.696 191.223C848.878 191.609 849.135 191.909 849.467 192.122C849.8 192.335 850.193 192.442 850.648 192.442C850.957 192.442 851.229 192.393 851.462 192.297C851.697 192.2 851.895 192.071 852.054 191.909C852.216 191.744 852.338 191.564 852.42 191.368L853.141 191.602C853.041 191.878 852.878 192.132 852.651 192.365C852.426 192.598 852.145 192.786 851.807 192.928C851.472 193.067 851.085 193.136 850.648 193.136ZM857.471 195.591C857.025 195.591 856.635 195.533 856.299 195.416C855.964 195.303 855.681 195.146 855.451 194.947C855.221 194.749 855.042 194.526 854.914 194.278L855.537 193.869C855.63 194.034 855.755 194.196 855.912 194.355C856.071 194.514 856.277 194.646 856.529 194.751C856.785 194.857 857.099 194.909 857.471 194.909C858.051 194.909 858.518 194.764 858.873 194.474C859.231 194.185 859.41 193.734 859.41 193.124V191.649H859.342C859.254 191.848 859.127 192.047 858.963 192.246C858.798 192.442 858.582 192.605 858.315 192.736C858.051 192.866 857.723 192.932 857.331 192.932C856.808 192.932 856.343 192.803 855.937 192.544C855.534 192.286 855.216 191.916 854.983 191.436C854.752 190.953 854.637 190.378 854.637 189.71C854.637 189.048 854.75 188.466 854.974 187.963C855.201 187.46 855.518 187.068 855.924 186.787C856.331 186.506 856.804 186.365 857.343 186.365C857.744 186.365 858.076 186.436 858.341 186.578C858.605 186.717 858.816 186.891 858.975 187.098C859.137 187.305 859.264 187.507 859.355 187.703H859.431V186.455H860.173V193.17C860.173 193.724 860.055 194.18 859.819 194.538C859.583 194.896 859.262 195.161 858.856 195.331C858.45 195.504 857.988 195.591 857.471 195.591ZM857.42 192.237C857.841 192.237 858.2 192.136 858.498 191.935C858.797 191.73 859.025 191.437 859.184 191.057C859.343 190.676 859.423 190.223 859.423 189.697C859.423 189.186 859.345 188.733 859.189 188.338C859.032 187.94 858.805 187.628 858.507 187.401C858.211 187.17 857.849 187.055 857.42 187.055C856.983 187.055 856.613 187.173 856.312 187.409C856.011 187.645 855.784 187.963 855.63 188.364C855.477 188.761 855.4 189.206 855.4 189.697C855.4 190.197 855.478 190.639 855.635 191.023C855.791 191.403 856.02 191.702 856.321 191.918C856.622 192.131 856.988 192.237 857.42 192.237ZM864.725 193.136C864.16 193.136 863.66 192.993 863.225 192.706C862.793 192.419 862.455 192.023 862.211 191.517C861.967 191.009 861.844 190.422 861.844 189.757C861.844 189.087 861.967 188.497 862.211 187.989C862.455 187.477 862.793 187.08 863.225 186.795C863.66 186.509 864.16 186.365 864.725 186.365C865.29 186.365 865.789 186.509 866.221 186.795C866.653 187.082 866.991 187.48 867.235 187.989C867.482 188.497 867.606 189.087 867.606 189.757C867.606 190.422 867.484 191.009 867.239 191.517C866.995 192.023 866.656 192.419 866.221 192.706C865.789 192.993 865.29 193.136 864.725 193.136ZM864.725 192.442C865.18 192.442 865.565 192.32 865.88 192.075C866.195 191.831 866.434 191.506 866.596 191.099C866.761 190.693 866.843 190.246 866.843 189.757C866.843 189.268 866.761 188.82 866.596 188.411C866.434 188.001 866.195 187.673 865.88 187.426C865.565 187.179 865.18 187.055 864.725 187.055C864.273 187.055 863.888 187.179 863.57 187.426C863.255 187.673 863.015 188.001 862.85 188.411C862.688 188.82 862.607 189.268 862.607 189.757C862.607 190.246 862.688 190.693 862.85 191.099C863.015 191.506 863.255 191.831 863.57 192.075C863.886 192.32 864.271 192.442 864.725 192.442ZM869.271 193V186.455H870.008V187.46H870.064C870.194 187.131 870.422 186.865 870.745 186.663C871.072 186.459 871.441 186.357 871.853 186.357C871.916 186.357 871.985 186.358 872.062 186.361C872.139 186.364 872.203 186.366 872.254 186.369V187.141C872.22 187.135 872.16 187.126 872.075 187.115C871.99 187.104 871.897 187.098 871.798 187.098C871.457 187.098 871.153 187.17 870.886 187.315C870.622 187.457 870.413 187.655 870.26 187.908C870.106 188.161 870.029 188.449 870.029 188.773V193H869.271ZM874.276 195.455C874.125 195.455 873.985 195.44 873.854 195.412C873.723 195.384 873.62 195.352 873.543 195.318L873.748 194.649C874.006 194.729 874.236 194.757 874.438 194.734C874.64 194.714 874.819 194.624 874.975 194.462C875.131 194.303 875.27 194.058 875.392 193.729L875.631 193.064L873.223 186.455H874.046L875.989 191.999H876.049L877.992 186.455H878.814L876.044 194.036C875.928 194.351 875.784 194.614 875.614 194.824C875.444 195.037 875.246 195.195 875.022 195.297C874.8 195.402 874.551 195.455 874.276 195.455ZM885.348 193L882.957 184.273H883.767L885.744 191.777H885.812L887.79 184.273H888.71L890.688 191.777H890.756L892.733 184.273H893.547L891.156 193H890.304L888.28 185.598H888.224L886.2 193H885.348ZM896.866 193.136C896.256 193.136 895.727 192.994 895.281 192.71C894.835 192.423 894.49 192.027 894.246 191.521C894.004 191.013 893.884 190.428 893.884 189.766C893.884 189.107 894.004 188.521 894.246 188.01C894.49 187.496 894.827 187.094 895.256 186.804C895.688 186.511 896.186 186.365 896.751 186.365C897.107 186.365 897.449 186.43 897.778 186.561C898.108 186.689 898.403 186.886 898.665 187.153C898.929 187.418 899.138 187.751 899.291 188.155C899.445 188.555 899.521 189.03 899.521 189.578V189.953H894.408V189.284H898.746C898.746 188.864 898.661 188.486 898.49 188.151C898.322 187.812 898.088 187.545 897.787 187.349C897.489 187.153 897.143 187.055 896.751 187.055C896.337 187.055 895.972 187.166 895.656 187.388C895.341 187.609 895.094 187.902 894.915 188.266C894.739 188.629 894.649 189.027 894.646 189.459V189.859C894.646 190.379 894.736 190.834 894.915 191.223C895.097 191.609 895.354 191.909 895.686 192.122C896.018 192.335 896.412 192.442 896.866 192.442C897.176 192.442 897.447 192.393 897.68 192.297C897.916 192.2 898.114 192.071 898.273 191.909C898.435 191.744 898.557 191.564 898.639 191.368L899.359 191.602C899.26 191.878 899.097 192.132 898.869 192.365C898.645 192.598 898.364 192.786 898.026 192.928C897.69 193.067 897.304 193.136 896.866 193.136ZM901.201 193V186.455H901.964V193H901.201ZM901.589 185.33C901.433 185.33 901.299 185.277 901.189 185.172C901.078 185.064 901.022 184.935 901.022 184.784C901.022 184.634 901.078 184.506 901.189 184.401C901.299 184.293 901.433 184.239 901.589 184.239C901.745 184.239 901.879 184.293 901.99 184.401C902.1 184.506 902.156 184.634 902.156 184.784C902.156 184.935 902.1 185.064 901.99 185.172C901.879 185.277 901.745 185.33 901.589 185.33ZM906.467 195.591C906.021 195.591 905.631 195.533 905.295 195.416C904.96 195.303 904.678 195.146 904.447 194.947C904.217 194.749 904.038 194.526 903.911 194.278L904.533 193.869C904.626 194.034 904.751 194.196 904.908 194.355C905.067 194.514 905.273 194.646 905.526 194.751C905.781 194.857 906.095 194.909 906.467 194.909C907.047 194.909 907.514 194.764 907.869 194.474C908.227 194.185 908.406 193.734 908.406 193.124V191.649H908.338C908.25 191.848 908.124 192.047 907.959 192.246C907.794 192.442 907.578 192.605 907.311 192.736C907.047 192.866 906.719 192.932 906.327 192.932C905.804 192.932 905.339 192.803 904.933 192.544C904.53 192.286 904.212 191.916 903.979 191.436C903.749 190.953 903.634 190.378 903.634 189.71C903.634 189.048 903.746 188.466 903.97 187.963C904.197 187.46 904.514 187.068 904.92 186.787C905.327 186.506 905.8 186.365 906.339 186.365C906.74 186.365 907.072 186.436 907.337 186.578C907.601 186.717 907.813 186.891 907.972 187.098C908.134 187.305 908.26 187.507 908.351 187.703H908.428V186.455H909.169V193.17C909.169 193.724 909.051 194.18 908.815 194.538C908.58 194.896 908.259 195.161 907.852 195.331C907.446 195.504 906.984 195.591 906.467 195.591ZM906.416 192.237C906.837 192.237 907.196 192.136 907.494 191.935C907.793 191.73 908.021 191.437 908.18 191.057C908.339 190.676 908.419 190.223 908.419 189.697C908.419 189.186 908.341 188.733 908.185 188.338C908.028 187.94 907.801 187.628 907.503 187.401C907.207 187.17 906.845 187.055 906.416 187.055C905.979 187.055 905.609 187.173 905.308 187.409C905.007 187.645 904.78 187.963 904.626 188.364C904.473 188.761 904.396 189.206 904.396 189.697C904.396 190.197 904.474 190.639 904.631 191.023C904.787 191.403 905.016 191.702 905.317 191.918C905.618 192.131 905.984 192.237 906.416 192.237ZM911.936 188.909V193H911.177V184.273H911.936V187.482H912.004C912.157 187.143 912.395 186.874 912.716 186.672C913.039 186.47 913.449 186.369 913.943 186.369C914.386 186.369 914.775 186.46 915.11 186.642C915.446 186.824 915.707 187.092 915.895 187.447C916.082 187.803 916.176 188.24 916.176 188.76V193H915.413V188.807C915.413 188.267 915.262 187.842 914.961 187.533C914.663 187.22 914.26 187.064 913.751 187.064C913.402 187.064 913.091 187.138 912.818 187.286C912.545 187.433 912.329 187.646 912.17 187.925C912.014 188.2 911.936 188.528 911.936 188.909ZM920.751 186.455V187.115H917.628V186.455H920.751ZM918.604 184.886H919.366V191.291C919.366 191.564 919.413 191.778 919.507 191.935C919.601 192.088 919.723 192.197 919.874 192.263C920.024 192.325 920.185 192.357 920.355 192.357C920.455 192.357 920.54 192.351 920.611 192.339C920.682 192.325 920.744 192.311 920.798 192.297L920.96 192.983C920.886 193.011 920.795 193.037 920.688 193.06C920.58 193.085 920.446 193.098 920.287 193.098C920.009 193.098 919.74 193.037 919.482 192.915C919.226 192.793 919.016 192.611 918.851 192.369C918.686 192.128 918.604 191.828 918.604 191.47V184.886ZM944.799 193L944.297 192.501L947.262 189.54H939.848V188.824H947.262L944.297 185.862L944.799 185.364L948.618 189.182L944.799 193ZM972.57 186.455C972.521 185.969 972.307 185.582 971.926 185.295C971.545 185.009 971.067 184.865 970.49 184.865C970.084 184.865 969.726 184.935 969.416 185.074C969.109 185.213 968.868 185.406 968.692 185.653C968.518 185.898 968.432 186.176 968.432 186.489C968.432 186.719 968.482 186.92 968.581 187.094C968.68 187.267 968.814 187.416 968.982 187.541C969.152 187.663 969.339 187.768 969.544 187.857C969.751 187.945 969.96 188.018 970.17 188.078L971.091 188.342C971.369 188.419 971.648 188.517 971.926 188.636C972.205 188.756 972.459 188.906 972.689 189.088C972.922 189.267 973.108 189.487 973.247 189.749C973.389 190.007 973.46 190.318 973.46 190.682C973.46 191.148 973.339 191.567 973.098 191.939C972.857 192.311 972.51 192.607 972.058 192.825C971.607 193.041 971.065 193.149 970.435 193.149C969.841 193.149 969.325 193.051 968.888 192.855C968.45 192.656 968.107 192.382 967.857 192.033C967.607 191.683 967.466 191.278 967.435 190.818H968.253C968.281 191.162 968.395 191.453 968.594 191.692C968.793 191.93 969.051 192.112 969.369 192.237C969.688 192.359 970.043 192.42 970.435 192.42C970.869 192.42 971.256 192.348 971.594 192.203C971.935 192.055 972.202 191.851 972.395 191.589C972.591 191.325 972.689 191.018 972.689 190.669C972.689 190.374 972.612 190.126 972.459 189.928C972.305 189.726 972.091 189.557 971.815 189.42C971.543 189.284 971.226 189.163 970.865 189.058L969.821 188.751C969.136 188.547 968.605 188.264 968.227 187.903C967.849 187.543 967.661 187.082 967.661 186.523C967.661 186.054 967.786 185.642 968.036 185.287C968.288 184.929 968.629 184.651 969.058 184.452C969.49 184.25 969.974 184.149 970.511 184.149C971.054 184.149 971.534 184.249 971.952 184.447C972.369 184.646 972.7 184.92 972.945 185.27C973.192 185.616 973.324 186.011 973.341 186.455H972.57ZM977.764 193.136C977.199 193.136 976.699 192.993 976.264 192.706C975.832 192.419 975.494 192.023 975.25 191.517C975.006 191.009 974.884 190.422 974.884 189.757C974.884 189.087 975.006 188.497 975.25 187.989C975.494 187.477 975.832 187.08 976.264 186.795C976.699 186.509 977.199 186.365 977.764 186.365C978.33 186.365 978.828 186.509 979.26 186.795C979.692 187.082 980.03 187.48 980.274 187.989C980.521 188.497 980.645 189.087 980.645 189.757C980.645 190.422 980.523 191.009 980.278 191.517C980.034 192.023 979.695 192.419 979.26 192.706C978.828 192.993 978.33 193.136 977.764 193.136ZM977.764 192.442C978.219 192.442 978.604 192.32 978.919 192.075C979.234 191.831 979.473 191.506 979.635 191.099C979.8 190.693 979.882 190.246 979.882 189.757C979.882 189.268 979.8 188.82 979.635 188.411C979.473 188.001 979.234 187.673 978.919 187.426C978.604 187.179 978.219 187.055 977.764 187.055C977.313 187.055 976.928 187.179 976.609 187.426C976.294 187.673 976.054 188.001 975.889 188.411C975.727 188.82 975.646 189.268 975.646 189.757C975.646 190.246 975.727 190.693 975.889 191.099C976.054 191.506 976.294 191.831 976.609 192.075C976.925 192.32 977.31 192.442 977.764 192.442ZM986.469 190.499V186.455H987.228V193H986.469V191.913H986.409C986.256 192.249 986.013 192.528 985.681 192.753C985.348 192.974 984.942 193.085 984.462 193.085C984.044 193.085 983.674 192.994 983.35 192.812C983.026 192.628 982.772 192.358 982.587 192.003C982.402 191.648 982.31 191.212 982.31 190.695V186.455H983.069V190.648C983.069 191.159 983.219 191.571 983.52 191.884C983.821 192.193 984.208 192.348 984.679 192.348C984.975 192.348 985.259 192.277 985.532 192.135C985.804 191.993 986.029 191.786 986.205 191.513C986.381 191.237 986.469 190.899 986.469 190.499ZM989.994 188.909V193H989.236V186.455H989.973V187.482H990.041C990.195 187.146 990.433 186.878 990.757 186.676C991.084 186.472 991.487 186.369 991.967 186.369C992.408 186.369 992.794 186.462 993.126 186.646C993.462 186.828 993.722 187.097 993.906 187.452C994.094 187.807 994.188 188.243 994.188 188.76V193H993.429V188.807C993.429 188.27 993.278 187.845 992.977 187.533C992.679 187.22 992.278 187.064 991.776 187.064C991.432 187.064 991.126 187.138 990.859 187.286C990.592 187.433 990.381 187.646 990.224 187.925C990.071 188.2 989.994 188.528 989.994 188.909ZM998.542 193.136C998.005 193.136 997.534 192.994 997.131 192.71C996.728 192.426 996.412 192.03 996.185 191.521C995.961 191.013 995.848 190.42 995.848 189.744C995.848 189.071 995.961 188.482 996.185 187.976C996.412 187.467 996.729 187.072 997.135 186.791C997.542 186.507 998.015 186.365 998.554 186.365C998.952 186.365 999.283 186.436 999.547 186.578C999.811 186.717 1000.02 186.891 1000.18 187.098C1000.34 187.305 1000.46 187.507 1000.55 187.703H1000.62V184.273H1001.38V193H1000.64V191.786H1000.55C1000.46 191.984 1000.34 192.189 1000.18 192.399C1000.02 192.607 999.801 192.781 999.534 192.923C999.27 193.065 998.939 193.136 998.542 193.136ZM998.631 192.442C999.054 192.442 999.415 192.327 999.713 192.097C1000.01 191.864 1000.24 191.544 1000.4 191.138C1000.55 190.729 1000.63 190.26 1000.63 189.732C1000.63 189.209 1000.56 188.747 1000.4 188.347C1000.24 187.943 1000.02 187.628 999.718 187.401C999.419 187.17 999.057 187.055 998.631 187.055C998.194 187.055 997.824 187.175 997.523 187.413C997.225 187.649 996.998 187.969 996.841 188.372C996.688 188.776 996.611 189.229 996.611 189.732C996.611 190.24 996.689 190.699 996.846 191.108C997.002 191.517 997.229 191.842 997.527 192.084C997.828 192.322 998.196 192.442 998.631 192.442ZM1007.87 184.273V193H1007.08V184.273H1007.87ZM1010.8 188.909V193H1010.04V186.455H1010.77V187.482H1010.84C1011 187.146 1011.23 186.878 1011.56 186.676C1011.88 186.472 1012.29 186.369 1012.77 186.369C1013.21 186.369 1013.59 186.462 1013.93 186.646C1014.26 186.828 1014.52 187.097 1014.71 187.452C1014.89 187.807 1014.99 188.243 1014.99 188.76V193H1014.23V188.807C1014.23 188.27 1014.08 187.845 1013.78 187.533C1013.48 187.22 1013.08 187.064 1012.58 187.064C1012.23 187.064 1011.93 187.138 1011.66 187.286C1011.39 187.433 1011.18 187.646 1011.03 187.925C1010.87 188.2 1010.8 188.528 1010.8 188.909ZM1019.56 186.455V187.115H1016.44V186.455H1019.56ZM1017.42 184.886H1018.18V191.291C1018.18 191.564 1018.23 191.778 1018.32 191.935C1018.41 192.088 1018.54 192.197 1018.69 192.263C1018.84 192.325 1019 192.357 1019.17 192.357C1019.27 192.357 1019.35 192.351 1019.42 192.339C1019.49 192.325 1019.56 192.311 1019.61 192.297L1019.77 192.983C1019.7 193.011 1019.61 193.037 1019.5 193.06C1019.39 193.085 1019.26 193.098 1019.1 193.098C1018.82 193.098 1018.55 193.037 1018.29 192.915C1018.04 192.793 1017.83 192.611 1017.66 192.369C1017.5 192.128 1017.42 191.828 1017.42 191.47V184.886ZM1023.86 193.136C1023.25 193.136 1022.72 192.994 1022.28 192.71C1021.83 192.423 1021.49 192.027 1021.24 191.521C1021 191.013 1020.88 190.428 1020.88 189.766C1020.88 189.107 1021 188.521 1021.24 188.01C1021.49 187.496 1021.82 187.094 1022.25 186.804C1022.68 186.511 1023.18 186.365 1023.75 186.365C1024.1 186.365 1024.44 186.43 1024.77 186.561C1025.1 186.689 1025.4 186.886 1025.66 187.153C1025.93 187.418 1026.13 187.751 1026.29 188.155C1026.44 188.555 1026.52 189.03 1026.52 189.578V189.953H1021.4V189.284H1025.74C1025.74 188.864 1025.66 188.486 1025.49 188.151C1025.32 187.812 1025.08 187.545 1024.78 187.349C1024.48 187.153 1024.14 187.055 1023.75 187.055C1023.33 187.055 1022.97 187.166 1022.65 187.388C1022.34 187.609 1022.09 187.902 1021.91 188.266C1021.73 188.629 1021.65 189.027 1021.64 189.459V189.859C1021.64 190.379 1021.73 190.834 1021.91 191.223C1022.09 191.609 1022.35 191.909 1022.68 192.122C1023.01 192.335 1023.41 192.442 1023.86 192.442C1024.17 192.442 1024.44 192.393 1024.68 192.297C1024.91 192.2 1025.11 192.071 1025.27 191.909C1025.43 191.744 1025.55 191.564 1025.64 191.368L1026.36 191.602C1026.26 191.878 1026.09 192.132 1025.87 192.365C1025.64 192.598 1025.36 192.786 1025.02 192.928C1024.69 193.067 1024.3 193.136 1023.86 193.136ZM1028.95 188.909V193H1028.19V186.455H1028.93V187.482H1028.99C1029.15 187.146 1029.39 186.878 1029.71 186.676C1030.04 186.472 1030.44 186.369 1030.92 186.369C1031.36 186.369 1031.75 186.462 1032.08 186.646C1032.41 186.828 1032.67 187.097 1032.86 187.452C1033.05 187.807 1033.14 188.243 1033.14 188.76V193H1032.38V188.807C1032.38 188.27 1032.23 187.845 1031.93 187.533C1031.63 187.22 1031.23 187.064 1030.73 187.064C1030.38 187.064 1030.08 187.138 1029.81 187.286C1029.55 187.433 1029.33 187.646 1029.18 187.925C1029.02 188.2 1028.95 188.528 1028.95 188.909ZM1039.54 187.891L1038.84 188.087C1038.77 187.891 1038.68 187.713 1038.55 187.554C1038.43 187.395 1038.26 187.268 1038.06 187.175C1037.86 187.081 1037.62 187.034 1037.32 187.034C1036.88 187.034 1036.51 187.139 1036.23 187.349C1035.94 187.56 1035.8 187.831 1035.8 188.163C1035.8 188.445 1035.9 188.673 1036.09 188.849C1036.29 189.023 1036.59 189.161 1037 189.263L1037.98 189.506C1038.53 189.639 1038.94 189.851 1039.22 190.141C1039.49 190.43 1039.63 190.794 1039.63 191.232C1039.63 191.601 1039.53 191.929 1039.32 192.216C1039.12 192.503 1038.83 192.729 1038.47 192.893C1038.1 193.055 1037.68 193.136 1037.2 193.136C1036.56 193.136 1036.03 192.993 1035.62 192.706C1035.2 192.416 1034.94 191.999 1034.82 191.453L1035.55 191.274C1035.65 191.663 1035.83 191.957 1036.1 192.156C1036.38 192.355 1036.74 192.455 1037.19 192.455C1037.69 192.455 1038.09 192.342 1038.39 192.118C1038.69 191.891 1038.85 191.607 1038.85 191.266C1038.85 191.001 1038.76 190.78 1038.58 190.601C1038.41 190.419 1038.14 190.286 1037.78 190.2L1036.71 189.945C1036.14 189.808 1035.72 189.592 1035.45 189.297C1035.18 189.001 1035.04 188.635 1035.04 188.197C1035.04 187.837 1035.14 187.52 1035.33 187.247C1035.53 186.972 1035.8 186.756 1036.14 186.599C1036.49 186.443 1036.88 186.365 1037.32 186.365C1037.92 186.365 1038.4 186.501 1038.76 186.774C1039.12 187.044 1039.38 187.416 1039.54 187.891ZM1041.3 193V186.455H1042.06V193H1041.3ZM1041.69 185.33C1041.53 185.33 1041.4 185.277 1041.29 185.172C1041.18 185.064 1041.12 184.935 1041.12 184.784C1041.12 184.634 1041.18 184.506 1041.29 184.401C1041.4 184.293 1041.53 184.239 1041.69 184.239C1041.84 184.239 1041.98 184.293 1042.09 184.401C1042.2 184.506 1042.25 184.634 1042.25 184.784C1042.25 184.935 1042.2 185.064 1042.09 185.172C1041.98 185.277 1041.84 185.33 1041.69 185.33ZM1046.65 186.455V187.115H1043.52V186.455H1046.65ZM1044.5 184.886H1045.26V191.291C1045.26 191.564 1045.31 191.778 1045.4 191.935C1045.5 192.088 1045.62 192.197 1045.77 192.263C1045.92 192.325 1046.08 192.357 1046.25 192.357C1046.35 192.357 1046.43 192.351 1046.51 192.339C1046.58 192.325 1046.64 192.311 1046.69 192.297L1046.85 192.983C1046.78 193.011 1046.69 193.037 1046.58 193.06C1046.47 193.085 1046.34 193.098 1046.18 193.098C1045.9 193.098 1045.63 193.037 1045.38 192.915C1045.12 192.793 1044.91 192.611 1044.75 192.369C1044.58 192.128 1044.5 191.828 1044.5 191.47V184.886ZM1048.9 195.455C1048.75 195.455 1048.61 195.44 1048.48 195.412C1048.34 195.384 1048.24 195.352 1048.16 195.318L1048.37 194.649C1048.63 194.729 1048.86 194.757 1049.06 194.734C1049.26 194.714 1049.44 194.624 1049.6 194.462C1049.75 194.303 1049.89 194.058 1050.01 193.729L1050.25 193.064L1047.84 186.455H1048.67L1050.61 191.999H1050.67L1052.61 186.455H1053.44L1050.67 194.036C1050.55 194.351 1050.41 194.614 1050.24 194.824C1050.06 195.037 1049.87 195.195 1049.64 195.297C1049.42 195.402 1049.17 195.455 1048.9 195.455ZM1077.24 193L1076.74 192.501L1079.71 189.54H1072.29V188.824H1079.71L1076.74 185.862L1077.24 185.364L1081.06 189.182L1077.24 193ZM1106.31 187C1106.24 186.71 1106.12 186.439 1105.97 186.186C1105.81 185.93 1105.62 185.707 1105.39 185.517C1105.17 185.324 1104.91 185.173 1104.61 185.065C1104.32 184.957 1104 184.903 1103.63 184.903C1103.07 184.903 1102.56 185.051 1102.11 185.347C1101.66 185.642 1101.3 186.068 1101.04 186.625C1100.78 187.182 1100.66 187.852 1100.66 188.636C1100.66 189.418 1100.79 190.087 1101.05 190.643C1101.31 191.2 1101.67 191.628 1102.12 191.926C1102.58 192.222 1103.1 192.369 1103.69 192.369C1104.23 192.369 1104.7 192.25 1105.11 192.011C1105.52 191.773 1105.85 191.432 1106.08 190.989C1106.31 190.545 1106.42 190.018 1106.42 189.408L1106.67 189.489H1103.88V188.773H1107.19V189.489C1107.19 190.233 1107.04 190.876 1106.74 191.419C1106.44 191.962 1106.03 192.381 1105.5 192.676C1104.98 192.972 1104.37 193.119 1103.69 193.119C1102.93 193.119 1102.26 192.936 1101.69 192.57C1101.12 192.2 1100.68 191.68 1100.36 191.01C1100.04 190.337 1099.88 189.545 1099.88 188.636C1099.88 187.952 1099.98 187.334 1100.16 186.783C1100.34 186.232 1100.6 185.76 1100.93 185.368C1101.26 184.976 1101.66 184.676 1102.12 184.469C1102.57 184.259 1103.08 184.153 1103.63 184.153C1104.11 184.153 1104.55 184.229 1104.94 184.379C1105.34 184.53 1105.69 184.737 1105.99 185.001C1106.29 185.263 1106.54 185.565 1106.74 185.909C1106.93 186.25 1107.06 186.614 1107.13 187H1106.31ZM1111.66 193.136C1111.05 193.136 1110.52 192.994 1110.07 192.71C1109.63 192.423 1109.28 192.027 1109.04 191.521C1108.8 191.013 1108.68 190.428 1108.68 189.766C1108.68 189.107 1108.8 188.521 1109.04 188.01C1109.28 187.496 1109.62 187.094 1110.05 186.804C1110.48 186.511 1110.98 186.365 1111.54 186.365C1111.9 186.365 1112.24 186.43 1112.57 186.561C1112.9 186.689 1113.2 186.886 1113.46 187.153C1113.72 187.418 1113.93 187.751 1114.08 188.155C1114.24 188.555 1114.31 189.03 1114.31 189.578V189.953H1109.2V189.284H1113.54C1113.54 188.864 1113.45 188.486 1113.28 188.151C1113.12 187.812 1112.88 187.545 1112.58 187.349C1112.28 187.153 1111.94 187.055 1111.54 187.055C1111.13 187.055 1110.76 187.166 1110.45 187.388C1110.13 187.609 1109.89 187.902 1109.71 188.266C1109.53 188.629 1109.44 189.027 1109.44 189.459V189.859C1109.44 190.379 1109.53 190.834 1109.71 191.223C1109.89 191.609 1110.15 191.909 1110.48 192.122C1110.81 192.335 1111.2 192.442 1111.66 192.442C1111.97 192.442 1112.24 192.393 1112.47 192.297C1112.71 192.2 1112.91 192.071 1113.07 191.909C1113.23 191.744 1113.35 191.564 1113.43 191.368L1114.15 191.602C1114.05 191.878 1113.89 192.132 1113.66 192.365C1113.44 192.598 1113.16 192.786 1112.82 192.928C1112.48 193.067 1112.1 193.136 1111.66 193.136ZM1116.74 188.909V193H1115.99V186.455H1116.72V187.482H1116.79C1116.94 187.146 1117.18 186.878 1117.51 186.676C1117.83 186.472 1118.24 186.369 1118.72 186.369C1119.16 186.369 1119.54 186.462 1119.88 186.646C1120.21 186.828 1120.47 187.097 1120.66 187.452C1120.84 187.807 1120.94 188.243 1120.94 188.76V193H1120.18V188.807C1120.18 188.27 1120.03 187.845 1119.73 187.533C1119.43 187.22 1119.03 187.064 1118.53 187.064C1118.18 187.064 1117.88 187.138 1117.61 187.286C1117.34 187.433 1117.13 187.646 1116.97 187.925C1116.82 188.2 1116.74 188.528 1116.74 188.909ZM1125.58 193.136C1124.97 193.136 1124.44 192.994 1124 192.71C1123.55 192.423 1123.2 192.027 1122.96 191.521C1122.72 191.013 1122.6 190.428 1122.6 189.766C1122.6 189.107 1122.72 188.521 1122.96 188.01C1123.2 187.496 1123.54 187.094 1123.97 186.804C1124.4 186.511 1124.9 186.365 1125.47 186.365C1125.82 186.365 1126.16 186.43 1126.49 186.561C1126.82 186.689 1127.12 186.886 1127.38 187.153C1127.64 187.418 1127.85 187.751 1128.01 188.155C1128.16 188.555 1128.24 189.03 1128.24 189.578V189.953H1123.12V189.284H1127.46C1127.46 188.864 1127.38 188.486 1127.2 188.151C1127.04 187.812 1126.8 187.545 1126.5 187.349C1126.2 187.153 1125.86 187.055 1125.47 187.055C1125.05 187.055 1124.69 187.166 1124.37 187.388C1124.06 187.609 1123.81 187.902 1123.63 188.266C1123.45 188.629 1123.36 189.027 1123.36 189.459V189.859C1123.36 190.379 1123.45 190.834 1123.63 191.223C1123.81 191.609 1124.07 191.909 1124.4 192.122C1124.73 192.335 1125.13 192.442 1125.58 192.442C1125.89 192.442 1126.16 192.393 1126.4 192.297C1126.63 192.2 1126.83 192.071 1126.99 191.909C1127.15 191.744 1127.27 191.564 1127.35 191.368L1128.07 191.602C1127.97 191.878 1127.81 192.132 1127.58 192.365C1127.36 192.598 1127.08 192.786 1126.74 192.928C1126.41 193.067 1126.02 193.136 1125.58 193.136ZM1129.91 193V186.455H1130.64V187.46H1130.7C1130.83 187.131 1131.06 186.865 1131.38 186.663C1131.71 186.459 1132.08 186.357 1132.49 186.357C1132.55 186.357 1132.62 186.358 1132.7 186.361C1132.78 186.364 1132.84 186.366 1132.89 186.369V187.141C1132.86 187.135 1132.8 187.126 1132.71 187.115C1132.63 187.104 1132.53 187.098 1132.43 187.098C1132.09 187.098 1131.79 187.17 1131.52 187.315C1131.26 187.457 1131.05 187.655 1130.9 187.908C1130.74 188.161 1130.67 188.449 1130.67 188.773V193H1129.91ZM1136.01 193.149C1135.62 193.149 1135.26 193.072 1134.93 192.919C1134.6 192.763 1134.34 192.538 1134.15 192.246C1133.96 191.95 1133.86 191.592 1133.86 191.172C1133.86 190.848 1133.92 190.575 1134.04 190.354C1134.17 190.132 1134.34 189.95 1134.56 189.808C1134.79 189.666 1135.05 189.554 1135.36 189.472C1135.67 189.389 1136.01 189.325 1136.38 189.28C1136.74 189.234 1137.05 189.195 1137.3 189.161C1137.56 189.126 1137.75 189.072 1137.89 188.999C1138.02 188.925 1138.09 188.805 1138.09 188.641V188.487C1138.09 188.041 1137.95 187.69 1137.69 187.435C1137.42 187.176 1137.04 187.047 1136.55 187.047C1136.07 187.047 1135.69 187.151 1135.39 187.358C1135.1 187.565 1134.89 187.81 1134.77 188.091L1134.05 187.831C1134.2 187.473 1134.4 187.187 1134.66 186.974C1134.92 186.759 1135.22 186.604 1135.54 186.51C1135.86 186.413 1136.19 186.365 1136.52 186.365C1136.77 186.365 1137.03 186.398 1137.3 186.463C1137.58 186.528 1137.83 186.642 1138.06 186.804C1138.3 186.963 1138.48 187.186 1138.63 187.473C1138.77 187.757 1138.85 188.118 1138.85 188.555V193H1138.09V191.964H1138.04C1137.95 192.158 1137.82 192.345 1137.64 192.527C1137.46 192.709 1137.23 192.858 1136.96 192.974C1136.69 193.091 1136.38 193.149 1136.01 193.149ZM1136.12 192.455C1136.52 192.455 1136.87 192.365 1137.16 192.186C1137.46 192.007 1137.69 191.77 1137.85 191.474C1138.01 191.176 1138.09 190.848 1138.09 190.49V189.544C1138.03 189.598 1137.94 189.646 1137.8 189.689C1137.67 189.732 1137.52 189.77 1137.35 189.804C1137.18 189.835 1137.01 189.862 1136.84 189.885C1136.67 189.908 1136.51 189.928 1136.38 189.945C1136.01 189.99 1135.69 190.061 1135.43 190.158C1135.17 190.254 1134.97 190.388 1134.83 190.558C1134.69 190.726 1134.62 190.942 1134.62 191.206C1134.62 191.604 1134.76 191.912 1135.05 192.131C1135.33 192.347 1135.69 192.455 1136.12 192.455ZM1143.44 186.455V187.115H1140.32V186.455H1143.44ZM1141.3 184.886H1142.06V191.291C1142.06 191.564 1142.1 191.778 1142.2 191.935C1142.29 192.088 1142.41 192.197 1142.56 192.263C1142.72 192.325 1142.88 192.357 1143.05 192.357C1143.15 192.357 1143.23 192.351 1143.3 192.339C1143.37 192.325 1143.44 192.311 1143.49 192.297L1143.65 192.983C1143.58 193.011 1143.49 193.037 1143.38 193.06C1143.27 193.085 1143.14 193.098 1142.98 193.098C1142.7 193.098 1142.43 193.037 1142.17 192.915C1141.92 192.793 1141.71 192.611 1141.54 192.369C1141.38 192.128 1141.3 191.828 1141.3 191.47V184.886ZM1145.17 193V186.455H1145.94V193H1145.17ZM1145.56 185.33C1145.41 185.33 1145.27 185.277 1145.16 185.172C1145.05 185.064 1145 184.935 1145 184.784C1145 184.634 1145.05 184.506 1145.16 184.401C1145.27 184.293 1145.41 184.239 1145.56 184.239C1145.72 184.239 1145.85 184.293 1145.96 184.401C1146.07 184.506 1146.13 184.634 1146.13 184.784C1146.13 184.935 1146.07 185.064 1145.96 185.172C1145.85 185.277 1145.72 185.33 1145.56 185.33ZM1153.01 186.455L1150.62 193H1149.81L1147.42 186.455H1148.24L1150.18 191.999H1150.24L1152.19 186.455H1153.01ZM1156.91 193.136C1156.29 193.136 1155.77 192.994 1155.32 192.71C1154.87 192.423 1154.53 192.027 1154.28 191.521C1154.04 191.013 1153.92 190.428 1153.92 189.766C1153.92 189.107 1154.04 188.521 1154.28 188.01C1154.53 187.496 1154.87 187.094 1155.29 186.804C1155.73 186.511 1156.23 186.365 1156.79 186.365C1157.15 186.365 1157.49 186.43 1157.82 186.561C1158.15 186.689 1158.44 186.886 1158.7 187.153C1158.97 187.418 1159.18 187.751 1159.33 188.155C1159.48 188.555 1159.56 189.03 1159.56 189.578V189.953H1154.45V189.284H1158.78C1158.78 188.864 1158.7 188.486 1158.53 188.151C1158.36 187.812 1158.13 187.545 1157.83 187.349C1157.53 187.153 1157.18 187.055 1156.79 187.055C1156.38 187.055 1156.01 187.166 1155.7 187.388C1155.38 187.609 1155.13 187.902 1154.95 188.266C1154.78 188.629 1154.69 189.027 1154.69 189.459V189.859C1154.69 190.379 1154.77 190.834 1154.95 191.223C1155.14 191.609 1155.39 191.909 1155.73 192.122C1156.06 192.335 1156.45 192.442 1156.91 192.442C1157.22 192.442 1157.49 192.393 1157.72 192.297C1157.96 192.2 1158.15 192.071 1158.31 191.909C1158.47 191.744 1158.6 191.564 1158.68 191.368L1159.4 191.602C1159.3 191.878 1159.14 192.132 1158.91 192.365C1158.68 192.598 1158.4 192.786 1158.06 192.928C1157.73 193.067 1157.34 193.136 1156.91 193.136ZM1169.5 186.455C1169.45 185.969 1169.24 185.582 1168.86 185.295C1168.48 185.009 1168 184.865 1167.42 184.865C1167.02 184.865 1166.66 184.935 1166.35 185.074C1166.04 185.213 1165.8 185.406 1165.63 185.653C1165.45 185.898 1165.37 186.176 1165.37 186.489C1165.37 186.719 1165.42 186.92 1165.51 187.094C1165.61 187.267 1165.75 187.416 1165.92 187.541C1166.09 187.663 1166.27 187.768 1166.48 187.857C1166.69 187.945 1166.89 188.018 1167.1 188.078L1168.02 188.342C1168.3 188.419 1168.58 188.517 1168.86 188.636C1169.14 188.756 1169.39 188.906 1169.62 189.088C1169.86 189.267 1170.04 189.487 1170.18 189.749C1170.32 190.007 1170.39 190.318 1170.39 190.682C1170.39 191.148 1170.27 191.567 1170.03 191.939C1169.79 192.311 1169.44 192.607 1168.99 192.825C1168.54 193.041 1168 193.149 1167.37 193.149C1166.77 193.149 1166.26 193.051 1165.82 192.855C1165.38 192.656 1165.04 192.382 1164.79 192.033C1164.54 191.683 1164.4 191.278 1164.37 190.818H1165.19C1165.21 191.162 1165.33 191.453 1165.53 191.692C1165.73 191.93 1165.98 192.112 1166.3 192.237C1166.62 192.359 1166.98 192.42 1167.37 192.42C1167.8 192.42 1168.19 192.348 1168.53 192.203C1168.87 192.055 1169.14 191.851 1169.33 191.589C1169.52 191.325 1169.62 191.018 1169.62 190.669C1169.62 190.374 1169.55 190.126 1169.39 189.928C1169.24 189.726 1169.02 189.557 1168.75 189.42C1168.48 189.284 1168.16 189.163 1167.8 189.058L1166.75 188.751C1166.07 188.547 1165.54 188.264 1165.16 187.903C1164.78 187.543 1164.59 187.082 1164.59 186.523C1164.59 186.054 1164.72 185.642 1164.97 185.287C1165.22 184.929 1165.56 184.651 1165.99 184.452C1166.42 184.25 1166.91 184.149 1167.44 184.149C1167.99 184.149 1168.47 184.249 1168.89 184.447C1169.3 184.646 1169.63 184.92 1169.88 185.27C1170.13 185.616 1170.26 186.011 1170.27 186.455H1169.5ZM1174.7 193.136C1174.13 193.136 1173.63 192.993 1173.2 192.706C1172.77 192.419 1172.43 192.023 1172.18 191.517C1171.94 191.009 1171.82 190.422 1171.82 189.757C1171.82 189.087 1171.94 188.497 1172.18 187.989C1172.43 187.477 1172.77 187.08 1173.2 186.795C1173.63 186.509 1174.13 186.365 1174.7 186.365C1175.26 186.365 1175.76 186.509 1176.19 186.795C1176.63 187.082 1176.96 187.48 1177.21 187.989C1177.45 188.497 1177.58 189.087 1177.58 189.757C1177.58 190.422 1177.46 191.009 1177.21 191.517C1176.97 192.023 1176.63 192.419 1176.19 192.706C1175.76 192.993 1175.26 193.136 1174.7 193.136ZM1174.7 192.442C1175.15 192.442 1175.54 192.32 1175.85 192.075C1176.17 191.831 1176.41 191.506 1176.57 191.099C1176.73 190.693 1176.82 190.246 1176.82 189.757C1176.82 189.268 1176.73 188.82 1176.57 188.411C1176.41 188.001 1176.17 187.673 1175.85 187.426C1175.54 187.179 1175.15 187.055 1174.7 187.055C1174.25 187.055 1173.86 187.179 1173.54 187.426C1173.23 187.673 1172.99 188.001 1172.82 188.411C1172.66 188.82 1172.58 189.268 1172.58 189.757C1172.58 190.246 1172.66 190.693 1172.82 191.099C1172.99 191.506 1173.23 191.831 1173.54 192.075C1173.86 192.32 1174.24 192.442 1174.7 192.442ZM1183.4 190.499V186.455H1184.16V193H1183.4V191.913H1183.34C1183.19 192.249 1182.95 192.528 1182.61 192.753C1182.28 192.974 1181.88 193.085 1181.4 193.085C1180.98 193.085 1180.61 192.994 1180.28 192.812C1179.96 192.628 1179.71 192.358 1179.52 192.003C1179.34 191.648 1179.24 191.212 1179.24 190.695V186.455H1180V190.648C1180 191.159 1180.15 191.571 1180.45 191.884C1180.75 192.193 1181.14 192.348 1181.61 192.348C1181.91 192.348 1182.19 192.277 1182.47 192.135C1182.74 191.993 1182.96 191.786 1183.14 191.513C1183.31 191.237 1183.4 190.899 1183.4 190.499ZM1186.93 188.909V193H1186.17V186.455H1186.91V187.482H1186.97C1187.13 187.146 1187.37 186.878 1187.69 186.676C1188.02 186.472 1188.42 186.369 1188.9 186.369C1189.34 186.369 1189.73 186.462 1190.06 186.646C1190.4 186.828 1190.66 187.097 1190.84 187.452C1191.03 187.807 1191.12 188.243 1191.12 188.76V193H1190.36V188.807C1190.36 188.27 1190.21 187.845 1189.91 187.533C1189.61 187.22 1189.21 187.064 1188.71 187.064C1188.37 187.064 1188.06 187.138 1187.79 187.286C1187.53 187.433 1187.31 187.646 1187.16 187.925C1187 188.2 1186.93 188.528 1186.93 188.909ZM1195.48 193.136C1194.94 193.136 1194.47 192.994 1194.06 192.71C1193.66 192.426 1193.35 192.03 1193.12 191.521C1192.89 191.013 1192.78 190.42 1192.78 189.744C1192.78 189.071 1192.89 188.482 1193.12 187.976C1193.35 187.467 1193.66 187.072 1194.07 186.791C1194.48 186.507 1194.95 186.365 1195.49 186.365C1195.89 186.365 1196.22 186.436 1196.48 186.578C1196.75 186.717 1196.96 186.891 1197.12 187.098C1197.27 187.305 1197.4 187.507 1197.49 187.703H1197.55V184.273H1198.32V193H1197.58V191.786H1197.49C1197.4 191.984 1197.27 192.189 1197.11 192.399C1196.95 192.607 1196.74 192.781 1196.47 192.923C1196.2 193.065 1195.87 193.136 1195.48 193.136ZM1195.56 192.442C1195.99 192.442 1196.35 192.327 1196.65 192.097C1196.95 191.864 1197.17 191.544 1197.33 191.138C1197.49 190.729 1197.57 190.26 1197.57 189.732C1197.57 189.209 1197.49 188.747 1197.33 188.347C1197.18 187.943 1196.95 187.628 1196.65 187.401C1196.35 187.17 1195.99 187.055 1195.56 187.055C1195.13 187.055 1194.76 187.175 1194.46 187.413C1194.16 187.649 1193.93 187.969 1193.77 188.372C1193.62 188.776 1193.54 189.229 1193.54 189.732C1193.54 190.24 1193.62 190.699 1193.78 191.108C1193.94 191.517 1194.16 191.842 1194.46 192.084C1194.76 192.322 1195.13 192.442 1195.56 192.442Z" fill="#4F4F4F"/>
<path d="M241.696 193H240.298L243.439 184.273H244.96L248.101 193H246.703L244.236 185.858H244.168L241.696 193ZM241.93 189.582H246.464V190.69H241.93V189.582ZM251.911 193.132C251.277 193.132 250.732 192.989 250.274 192.702C249.82 192.412 249.47 192.013 249.226 191.504C248.982 190.996 248.859 190.413 248.859 189.757C248.859 189.092 248.984 188.506 249.234 187.997C249.484 187.486 249.837 187.087 250.291 186.8C250.746 186.513 251.281 186.369 251.898 186.369C252.395 186.369 252.838 186.462 253.227 186.646C253.616 186.828 253.93 187.084 254.169 187.413C254.411 187.743 254.554 188.128 254.599 188.568H253.359C253.291 188.261 253.135 187.997 252.891 187.776C252.649 187.554 252.325 187.443 251.919 187.443C251.564 187.443 251.253 187.537 250.986 187.724C250.722 187.909 250.516 188.173 250.368 188.517C250.22 188.858 250.146 189.261 250.146 189.727C250.146 190.205 250.219 190.616 250.364 190.963C250.509 191.31 250.713 191.578 250.977 191.768C251.244 191.959 251.558 192.054 251.919 192.054C252.161 192.054 252.379 192.01 252.575 191.922C252.774 191.831 252.94 191.702 253.074 191.534C253.21 191.366 253.305 191.165 253.359 190.929H254.599C254.554 191.352 254.416 191.73 254.186 192.062C253.956 192.395 253.648 192.656 253.261 192.847C252.878 193.037 252.428 193.132 251.911 193.132ZM259.017 186.455V187.477H255.442V186.455H259.017ZM256.401 184.886H257.675V191.078C257.675 191.325 257.712 191.511 257.786 191.636C257.86 191.759 257.955 191.842 258.071 191.888C258.191 191.93 258.32 191.952 258.459 191.952C258.561 191.952 258.651 191.945 258.728 191.93C258.804 191.916 258.864 191.905 258.907 191.896L259.137 192.949C259.063 192.977 258.958 193.006 258.821 193.034C258.685 193.065 258.515 193.082 258.31 193.085C257.975 193.091 257.662 193.031 257.373 192.906C257.083 192.781 256.848 192.588 256.669 192.327C256.49 192.065 256.401 191.737 256.401 191.342V184.886ZM260.427 193V186.455H261.701V193H260.427ZM261.07 185.445C260.849 185.445 260.658 185.371 260.499 185.223C260.343 185.072 260.265 184.893 260.265 184.686C260.265 184.476 260.343 184.297 260.499 184.149C260.658 183.999 260.849 183.923 261.07 183.923C261.292 183.923 261.481 183.999 261.637 184.149C261.796 184.297 261.876 184.476 261.876 184.686C261.876 184.893 261.796 185.072 261.637 185.223C261.481 185.371 261.292 185.445 261.07 185.445ZM269.015 186.455L266.641 193H265.277L262.9 186.455H264.267L265.925 191.491H265.993L267.647 186.455H269.015ZM270.212 193V186.455H271.486V193H270.212ZM270.855 185.445C270.634 185.445 270.444 185.371 270.284 185.223C270.128 185.072 270.05 184.893 270.05 184.686C270.05 184.476 270.128 184.297 270.284 184.149C270.444 183.999 270.634 183.923 270.855 183.923C271.077 183.923 271.266 183.999 271.422 184.149C271.581 184.297 271.661 184.476 271.661 184.686C271.661 184.893 271.581 185.072 271.422 185.223C271.266 185.371 271.077 185.445 270.855 185.445ZM276.256 186.455V187.477H272.68V186.455H276.256ZM273.639 184.886H274.913V191.078C274.913 191.325 274.95 191.511 275.024 191.636C275.098 191.759 275.193 191.842 275.31 191.888C275.429 191.93 275.558 191.952 275.697 191.952C275.8 191.952 275.889 191.945 275.966 191.93C276.043 191.916 276.102 191.905 276.145 191.896L276.375 192.949C276.301 192.977 276.196 193.006 276.06 193.034C275.923 193.065 275.753 193.082 275.548 193.085C275.213 193.091 274.901 193.031 274.611 192.906C274.321 192.781 274.087 192.588 273.908 192.327C273.729 192.065 273.639 191.737 273.639 191.342V184.886ZM278.471 195.455C278.28 195.455 278.107 195.439 277.951 195.408C277.794 195.379 277.678 195.348 277.601 195.314L277.908 194.27C278.141 194.332 278.348 194.359 278.53 194.351C278.712 194.342 278.873 194.274 279.012 194.146C279.154 194.018 279.279 193.81 279.387 193.52L279.544 193.085L277.15 186.455H278.513L280.171 191.534H280.239L281.897 186.455H283.265L280.567 193.874C280.442 194.214 280.283 194.503 280.09 194.739C279.897 194.977 279.667 195.156 279.4 195.276C279.132 195.395 278.823 195.455 278.471 195.455ZM290.565 193H287.74V184.273H290.655C291.51 184.273 292.244 184.447 292.858 184.797C293.472 185.143 293.942 185.642 294.268 186.293C294.598 186.94 294.763 187.717 294.763 188.624C294.763 189.533 294.597 190.314 294.264 190.967C293.935 191.621 293.457 192.124 292.832 192.476C292.207 192.825 291.452 193 290.565 193ZM289.057 191.849H290.493C291.158 191.849 291.71 191.724 292.151 191.474C292.591 191.222 292.92 190.857 293.139 190.379C293.358 189.899 293.467 189.314 293.467 188.624C293.467 187.939 293.358 187.358 293.139 186.881C292.923 186.403 292.601 186.041 292.172 185.794C291.743 185.547 291.21 185.423 290.574 185.423H289.057V191.849ZM298.203 193.145C297.788 193.145 297.413 193.068 297.078 192.915C296.743 192.759 296.477 192.533 296.281 192.237C296.088 191.942 295.991 191.58 295.991 191.151C295.991 190.781 296.062 190.477 296.204 190.239C296.346 190 296.538 189.811 296.779 189.672C297.021 189.533 297.291 189.428 297.589 189.357C297.887 189.286 298.191 189.232 298.501 189.195C298.893 189.149 299.211 189.112 299.456 189.084C299.7 189.053 299.877 189.003 299.988 188.935C300.099 188.866 300.154 188.756 300.154 188.602V188.572C300.154 188.2 300.049 187.912 299.839 187.707C299.632 187.503 299.322 187.401 298.91 187.401C298.481 187.401 298.143 187.496 297.896 187.686C297.652 187.874 297.483 188.082 297.389 188.312L296.191 188.04C296.333 187.642 296.541 187.321 296.814 187.077C297.089 186.83 297.406 186.651 297.764 186.54C298.122 186.426 298.498 186.369 298.893 186.369C299.154 186.369 299.431 186.401 299.724 186.463C300.02 186.523 300.295 186.634 300.551 186.795C300.809 186.957 301.021 187.189 301.186 187.49C301.35 187.788 301.433 188.176 301.433 188.653V193H300.189V192.105H300.137C300.055 192.27 299.931 192.432 299.767 192.591C299.602 192.75 299.39 192.882 299.132 192.987C298.873 193.092 298.564 193.145 298.203 193.145ZM298.48 192.122C298.832 192.122 299.133 192.053 299.383 191.913C299.636 191.774 299.828 191.592 299.958 191.368C300.092 191.141 300.159 190.898 300.159 190.639V189.795C300.113 189.841 300.025 189.884 299.895 189.923C299.767 189.96 299.62 189.993 299.456 190.021C299.291 190.047 299.13 190.071 298.974 190.094C298.818 190.114 298.687 190.131 298.582 190.145C298.335 190.176 298.109 190.229 297.904 190.303C297.703 190.376 297.541 190.483 297.419 190.622C297.299 190.759 297.24 190.94 297.24 191.168C297.24 191.483 297.356 191.722 297.589 191.884C297.822 192.043 298.119 192.122 298.48 192.122ZM306.185 186.455V187.477H302.61V186.455H306.185ZM303.569 184.886H304.843V191.078C304.843 191.325 304.88 191.511 304.954 191.636C305.028 191.759 305.123 191.842 305.239 191.888C305.359 191.93 305.488 191.952 305.627 191.952C305.729 191.952 305.819 191.945 305.896 191.93C305.972 191.916 306.032 191.905 306.075 191.896L306.305 192.949C306.231 192.977 306.126 193.006 305.989 193.034C305.853 193.065 305.683 193.082 305.478 193.085C305.143 193.091 304.83 193.031 304.54 192.906C304.251 192.781 304.016 192.588 303.837 192.327C303.658 192.065 303.569 191.737 303.569 191.342V184.886ZM309.5 193.145C309.085 193.145 308.71 193.068 308.375 192.915C308.039 192.759 307.774 192.533 307.578 192.237C307.385 191.942 307.288 191.58 307.288 191.151C307.288 190.781 307.359 190.477 307.501 190.239C307.643 190 307.835 189.811 308.076 189.672C308.318 189.533 308.588 189.428 308.886 189.357C309.184 189.286 309.488 189.232 309.798 189.195C310.19 189.149 310.508 189.112 310.752 189.084C310.997 189.053 311.174 189.003 311.285 188.935C311.396 188.866 311.451 188.756 311.451 188.602V188.572C311.451 188.2 311.346 187.912 311.136 187.707C310.929 187.503 310.619 187.401 310.207 187.401C309.778 187.401 309.44 187.496 309.193 187.686C308.949 187.874 308.779 188.082 308.686 188.312L307.488 188.04C307.63 187.642 307.838 187.321 308.11 187.077C308.386 186.83 308.703 186.651 309.061 186.54C309.419 186.426 309.795 186.369 310.19 186.369C310.451 186.369 310.728 186.401 311.021 186.463C311.316 186.523 311.592 186.634 311.848 186.795C312.106 186.957 312.318 187.189 312.483 187.49C312.647 187.788 312.73 188.176 312.73 188.653V193H311.485V192.105H311.434C311.352 192.27 311.228 192.432 311.064 192.591C310.899 192.75 310.687 192.882 310.429 192.987C310.17 193.092 309.86 193.145 309.5 193.145ZM309.777 192.122C310.129 192.122 310.43 192.053 310.68 191.913C310.933 191.774 311.125 191.592 311.255 191.368C311.389 191.141 311.456 190.898 311.456 190.639V189.795C311.41 189.841 311.322 189.884 311.191 189.923C311.064 189.96 310.917 189.993 310.752 190.021C310.588 190.047 310.427 190.071 310.271 190.094C310.115 190.114 309.984 190.131 309.879 190.145C309.632 190.176 309.406 190.229 309.201 190.303C309 190.376 308.838 190.483 308.716 190.622C308.596 190.759 308.537 190.94 308.537 191.168C308.537 191.483 308.653 191.722 308.886 191.884C309.119 192.043 309.416 192.122 309.777 192.122ZM329.392 193.158L328.625 192.399L331.288 189.736H324.598V188.628H331.288L328.625 185.969L329.392 185.206L333.368 189.182L329.392 193.158ZM349.793 186.565C349.748 186.162 349.56 185.849 349.23 185.628C348.901 185.403 348.486 185.291 347.986 185.291C347.628 185.291 347.319 185.348 347.057 185.462C346.796 185.572 346.593 185.726 346.448 185.922C346.306 186.115 346.235 186.335 346.235 186.582C346.235 186.79 346.283 186.969 346.38 187.119C346.479 187.27 346.608 187.396 346.767 187.499C346.929 187.598 347.103 187.682 347.287 187.75C347.472 187.815 347.65 187.869 347.82 187.912L348.672 188.134C348.951 188.202 349.236 188.294 349.529 188.411C349.821 188.527 350.093 188.68 350.343 188.871C350.593 189.061 350.794 189.297 350.948 189.578C351.104 189.859 351.182 190.196 351.182 190.588C351.182 191.082 351.054 191.521 350.799 191.905C350.546 192.288 350.178 192.591 349.695 192.812C349.215 193.034 348.634 193.145 347.952 193.145C347.299 193.145 346.733 193.041 346.256 192.834C345.779 192.626 345.405 192.332 345.135 191.952C344.865 191.568 344.716 191.114 344.688 190.588H346.009C346.034 190.903 346.137 191.166 346.316 191.376C346.498 191.584 346.729 191.739 347.01 191.841C347.294 191.94 347.605 191.99 347.944 191.99C348.316 191.99 348.647 191.932 348.936 191.815C349.229 191.696 349.459 191.531 349.627 191.321C349.794 191.108 349.878 190.859 349.878 190.575C349.878 190.317 349.804 190.105 349.657 189.94C349.512 189.776 349.314 189.639 349.064 189.531C348.817 189.423 348.537 189.328 348.225 189.246L347.194 188.964C346.495 188.774 345.941 188.494 345.532 188.125C345.125 187.756 344.922 187.267 344.922 186.659C344.922 186.156 345.059 185.717 345.331 185.342C345.604 184.967 345.973 184.676 346.439 184.469C346.905 184.259 347.431 184.153 348.016 184.153C348.607 184.153 349.128 184.257 349.58 184.464C350.034 184.672 350.392 184.957 350.654 185.321C350.915 185.682 351.051 186.097 351.063 186.565H349.793ZM355.411 193.132C354.797 193.132 354.261 192.991 353.804 192.71C353.347 192.429 352.991 192.036 352.739 191.53C352.486 191.024 352.359 190.433 352.359 189.757C352.359 189.078 352.486 188.484 352.739 187.976C352.991 187.467 353.347 187.072 353.804 186.791C354.261 186.51 354.797 186.369 355.411 186.369C356.024 186.369 356.56 186.51 357.017 186.791C357.474 187.072 357.83 187.467 358.082 187.976C358.335 188.484 358.462 189.078 358.462 189.757C358.462 190.433 358.335 191.024 358.082 191.53C357.83 192.036 357.474 192.429 357.017 192.71C356.56 192.991 356.024 193.132 355.411 193.132ZM355.415 192.062C355.813 192.062 356.142 191.957 356.403 191.747C356.665 191.537 356.858 191.257 356.983 190.908C357.111 190.558 357.175 190.173 357.175 189.753C357.175 189.335 357.111 188.952 356.983 188.602C356.858 188.25 356.665 187.967 356.403 187.754C356.142 187.541 355.813 187.435 355.415 187.435C355.014 187.435 354.682 187.541 354.418 187.754C354.156 187.967 353.962 188.25 353.834 188.602C353.709 188.952 353.646 189.335 353.646 189.753C353.646 190.173 353.709 190.558 353.834 190.908C353.962 191.257 354.156 191.537 354.418 191.747C354.682 191.957 355.014 192.062 355.415 192.062ZM364.03 190.286V186.455H365.309V193H364.056V191.866H363.988C363.837 192.216 363.596 192.507 363.263 192.74C362.934 192.97 362.523 193.085 362.032 193.085C361.611 193.085 361.239 192.993 360.915 192.808C360.594 192.621 360.341 192.344 360.157 191.977C359.975 191.611 359.884 191.158 359.884 190.618V186.455H361.158V190.464C361.158 190.911 361.282 191.266 361.529 191.53C361.776 191.794 362.097 191.926 362.492 191.926C362.73 191.926 362.968 191.866 363.203 191.747C363.442 191.628 363.64 191.447 363.796 191.206C363.955 190.964 364.033 190.658 364.03 190.286ZM368.295 189.114V193H367.021V186.455H368.244V187.52H368.325C368.475 187.173 368.711 186.895 369.032 186.685C369.356 186.474 369.763 186.369 370.255 186.369C370.701 186.369 371.092 186.463 371.427 186.651C371.762 186.835 372.022 187.111 372.207 187.477C372.391 187.844 372.484 188.297 372.484 188.837V193H371.21V188.99C371.21 188.516 371.086 188.145 370.839 187.878C370.592 187.608 370.252 187.473 369.82 187.473C369.525 187.473 369.262 187.537 369.032 187.665C368.805 187.793 368.624 187.98 368.491 188.227C368.36 188.472 368.295 188.767 368.295 189.114ZM376.643 193.128C376.114 193.128 375.643 192.993 375.228 192.723C374.816 192.45 374.492 192.062 374.256 191.56C374.023 191.054 373.907 190.447 373.907 189.74C373.907 189.033 374.025 188.428 374.261 187.925C374.499 187.422 374.826 187.037 375.241 186.77C375.656 186.503 376.126 186.369 376.651 186.369C377.058 186.369 377.384 186.438 377.631 186.574C377.881 186.707 378.075 186.864 378.211 187.043C378.35 187.222 378.458 187.379 378.535 187.516H378.612V184.273H379.886V193H378.641V191.982H378.535C378.458 192.121 378.347 192.28 378.202 192.459C378.06 192.638 377.864 192.794 377.614 192.928C377.364 193.061 377.04 193.128 376.643 193.128ZM376.924 192.041C377.29 192.041 377.6 191.945 377.853 191.751C378.109 191.555 378.302 191.284 378.433 190.938C378.566 190.591 378.633 190.187 378.633 189.727C378.633 189.273 378.567 188.875 378.437 188.534C378.306 188.193 378.114 187.928 377.862 187.737C377.609 187.547 377.296 187.452 376.924 187.452C376.54 187.452 376.221 187.551 375.965 187.75C375.71 187.949 375.516 188.22 375.386 188.564C375.258 188.908 375.194 189.295 375.194 189.727C375.194 190.165 375.259 190.558 375.39 190.908C375.521 191.257 375.714 191.534 375.969 191.739C376.228 191.94 376.546 192.041 376.924 192.041ZM395.247 193.081C395.014 193.081 394.814 192.999 394.646 192.834C394.478 192.666 394.395 192.464 394.395 192.229C394.395 191.996 394.478 191.797 394.646 191.632C394.814 191.464 395.014 191.381 395.247 191.381C395.48 191.381 395.68 191.464 395.848 191.632C396.015 191.797 396.099 191.996 396.099 192.229C396.099 192.385 396.059 192.528 395.98 192.659C395.903 192.787 395.801 192.889 395.673 192.966C395.545 193.043 395.403 193.081 395.247 193.081ZM395.247 188.317C395.014 188.317 394.814 188.233 394.646 188.065C394.478 187.898 394.395 187.697 394.395 187.464C394.395 187.232 394.478 187.033 394.646 186.868C394.814 186.7 395.014 186.616 395.247 186.616C395.48 186.616 395.68 186.7 395.848 186.868C396.015 187.033 396.099 187.232 396.099 187.464C396.099 187.621 396.059 187.764 395.98 187.895C395.903 188.023 395.801 188.125 395.673 188.202C395.545 188.278 395.403 188.317 395.247 188.317Z" fill="#4F4F4F"/>
<path d="M240.557 149.364V147.818H248.68V149.364H245.533V158H243.704V149.364H240.557ZM254.347 153.526V158H252.547V147.818H254.307V151.661H254.396C254.575 151.23 254.852 150.891 255.227 150.642C255.604 150.39 256.085 150.264 256.668 150.264C257.199 150.264 257.661 150.375 258.055 150.597C258.45 150.819 258.755 151.144 258.97 151.572C259.189 151.999 259.298 152.521 259.298 153.138V158H257.499V153.416C257.499 152.902 257.366 152.503 257.101 152.218C256.839 151.93 256.471 151.786 255.997 151.786C255.679 151.786 255.394 151.855 255.142 151.994C254.893 152.13 254.698 152.327 254.555 152.586C254.416 152.844 254.347 153.158 254.347 153.526ZM266.894 158.149C266.128 158.149 265.467 157.99 264.91 157.672C264.356 157.35 263.93 156.896 263.632 156.31C263.334 155.72 263.185 155.025 263.185 154.227C263.185 153.441 263.334 152.752 263.632 152.158C263.934 151.562 264.355 151.098 264.895 150.766C265.435 150.432 266.07 150.264 266.799 150.264C267.27 150.264 267.714 150.34 268.131 150.493C268.552 150.642 268.924 150.874 269.245 151.189C269.57 151.504 269.825 151.905 270.011 152.392C270.196 152.876 270.289 153.453 270.289 154.122V154.674H264.03V153.461H268.564C268.561 153.116 268.486 152.81 268.34 152.541C268.194 152.269 267.991 152.056 267.729 151.9C267.47 151.744 267.169 151.666 266.824 151.666C266.456 151.666 266.133 151.756 265.854 151.935C265.576 152.11 265.359 152.342 265.203 152.631C265.051 152.916 264.973 153.229 264.97 153.57V154.629C264.97 155.073 265.051 155.455 265.213 155.773C265.376 156.088 265.603 156.33 265.894 156.499C266.186 156.664 266.527 156.747 266.918 156.747C267.18 156.747 267.417 156.711 267.629 156.638C267.841 156.562 268.025 156.451 268.181 156.305C268.337 156.159 268.455 155.978 268.534 155.763L270.215 155.952C270.108 156.396 269.906 156.784 269.608 157.115C269.313 157.443 268.935 157.698 268.474 157.881C268.014 158.06 267.487 158.149 266.894 158.149ZM280.124 158V147.818H286.746V149.364H281.968V152.129H286.403V153.675H281.968V156.454H286.786V158H280.124ZM294.259 158.149C293.497 158.149 292.842 157.982 292.295 157.647C291.752 157.312 291.333 156.85 291.038 156.26C290.746 155.667 290.6 154.984 290.6 154.212C290.6 153.436 290.749 152.752 291.048 152.158C291.346 151.562 291.767 151.098 292.31 150.766C292.857 150.432 293.504 150.264 294.249 150.264C294.869 150.264 295.418 150.379 295.895 150.607C296.375 150.833 296.758 151.152 297.043 151.567C297.328 151.978 297.491 152.458 297.531 153.009H295.81C295.741 152.641 295.575 152.334 295.313 152.089C295.055 151.84 294.708 151.716 294.274 151.716C293.906 151.716 293.583 151.815 293.305 152.014C293.026 152.21 292.809 152.491 292.653 152.859C292.501 153.227 292.425 153.668 292.425 154.182C292.425 154.702 292.501 155.15 292.653 155.524C292.806 155.895 293.02 156.182 293.295 156.384C293.573 156.583 293.9 156.683 294.274 156.683C294.539 156.683 294.776 156.633 294.985 156.533C295.197 156.431 295.374 156.283 295.517 156.091C295.66 155.899 295.757 155.665 295.81 155.39H297.531C297.487 155.93 297.328 156.409 297.053 156.827C296.778 157.241 296.404 157.566 295.93 157.801C295.456 158.033 294.899 158.149 294.259 158.149ZM303.188 153.526V158H301.388V147.818H303.148V151.661H303.238C303.417 151.23 303.693 150.891 304.068 150.642C304.446 150.39 304.926 150.264 305.51 150.264C306.04 150.264 306.502 150.375 306.897 150.597C307.291 150.819 307.596 151.144 307.812 151.572C308.03 151.999 308.14 152.521 308.14 153.138V158H306.34V153.416C306.34 152.902 306.207 152.503 305.942 152.218C305.68 151.93 305.313 151.786 304.839 151.786C304.52 151.786 304.235 151.855 303.983 151.994C303.735 152.13 303.539 152.327 303.397 152.586C303.258 152.844 303.188 153.158 303.188 153.526ZM315.685 158.149C314.939 158.149 314.293 157.985 313.746 157.657C313.199 157.329 312.775 156.87 312.474 156.28C312.175 155.69 312.026 155 312.026 154.212C312.026 153.423 312.175 152.732 312.474 152.138C312.775 151.545 313.199 151.085 313.746 150.756C314.293 150.428 314.939 150.264 315.685 150.264C316.431 150.264 317.077 150.428 317.624 150.756C318.171 151.085 318.594 151.545 318.892 152.138C319.194 152.732 319.344 153.423 319.344 154.212C319.344 155 319.194 155.69 318.892 156.28C318.594 156.87 318.171 157.329 317.624 157.657C317.077 157.985 316.431 158.149 315.685 158.149ZM315.695 156.707C316.1 156.707 316.438 156.596 316.709 156.374C316.981 156.149 317.183 155.847 317.316 155.469C317.452 155.092 317.52 154.671 317.52 154.207C317.52 153.739 317.452 153.317 317.316 152.939C317.183 152.558 316.981 152.254 316.709 152.029C316.438 151.804 316.1 151.691 315.695 151.691C315.281 151.691 314.936 151.804 314.661 152.029C314.389 152.254 314.185 152.558 314.05 152.939C313.917 153.317 313.851 153.739 313.851 154.207C313.851 154.671 313.917 155.092 314.05 155.469C314.185 155.847 314.389 156.149 314.661 156.374C314.936 156.596 315.281 156.707 315.695 156.707ZM326.633 158.149C325.867 158.149 325.206 157.99 324.649 157.672C324.095 157.35 323.669 156.896 323.371 156.31C323.073 155.72 322.924 155.025 322.924 154.227C322.924 153.441 323.073 152.752 323.371 152.158C323.673 151.562 324.094 151.098 324.634 150.766C325.174 150.432 325.809 150.264 326.538 150.264C327.009 150.264 327.453 150.34 327.87 150.493C328.291 150.642 328.663 150.874 328.984 151.189C329.309 151.504 329.564 151.905 329.75 152.392C329.935 152.876 330.028 153.453 330.028 154.122V154.674H323.769V153.461H328.303C328.3 153.116 328.225 152.81 328.079 152.541C327.933 152.269 327.73 152.056 327.468 151.9C327.209 151.744 326.908 151.666 326.563 151.666C326.195 151.666 325.872 151.756 325.593 151.935C325.315 152.11 325.098 152.342 324.942 152.631C324.79 152.916 324.712 153.229 324.709 153.57V154.629C324.709 155.073 324.79 155.455 324.952 155.773C325.115 156.088 325.342 156.33 325.633 156.499C325.925 156.664 326.266 156.747 326.657 156.747C326.919 156.747 327.156 156.711 327.368 156.638C327.58 156.562 327.764 156.451 327.92 156.305C328.076 156.159 328.194 155.978 328.273 155.763L329.954 155.952C329.847 156.396 329.645 156.784 329.347 157.115C329.052 157.443 328.674 157.698 328.213 157.881C327.753 158.06 327.226 158.149 326.633 158.149ZM339.966 152.382L338.326 152.561C338.279 152.395 338.198 152.24 338.082 152.094C337.969 151.948 337.817 151.83 337.625 151.741C337.432 151.651 337.197 151.607 336.919 151.607C336.544 151.607 336.229 151.688 335.974 151.85C335.722 152.013 335.598 152.223 335.601 152.482C335.598 152.704 335.679 152.884 335.845 153.023C336.014 153.163 336.292 153.277 336.68 153.366L337.982 153.645C338.705 153.801 339.242 154.048 339.593 154.386C339.948 154.724 340.127 155.166 340.13 155.713C340.127 156.194 339.986 156.618 339.708 156.986C339.433 157.35 339.05 157.635 338.559 157.841C338.069 158.046 337.505 158.149 336.869 158.149C335.934 158.149 335.182 157.954 334.612 157.562C334.042 157.168 333.702 156.62 333.593 155.917L335.348 155.748C335.427 156.093 335.596 156.353 335.855 156.528C336.113 156.704 336.45 156.792 336.864 156.792C337.291 156.792 337.634 156.704 337.893 156.528C338.155 156.353 338.286 156.136 338.286 155.877C338.286 155.658 338.201 155.478 338.032 155.335C337.866 155.193 337.608 155.083 337.257 155.007L335.954 154.734C335.222 154.581 334.68 154.324 334.328 153.963C333.977 153.598 333.803 153.138 333.806 152.581C333.803 152.11 333.931 151.703 334.189 151.358C334.451 151.01 334.814 150.741 335.278 150.553C335.745 150.36 336.284 150.264 336.894 150.264C337.789 150.264 338.493 150.455 339.007 150.836C339.524 151.217 339.844 151.732 339.966 152.382ZM353.178 158.149C352.432 158.149 351.786 157.985 351.239 157.657C350.692 157.329 350.268 156.87 349.966 156.28C349.668 155.69 349.519 155 349.519 154.212C349.519 153.423 349.668 152.732 349.966 152.138C350.268 151.545 350.692 151.085 351.239 150.756C351.786 150.428 352.432 150.264 353.178 150.264C353.924 150.264 354.57 150.428 355.117 150.756C355.664 151.085 356.086 151.545 356.385 152.138C356.686 152.732 356.837 153.423 356.837 154.212C356.837 155 356.686 155.69 356.385 156.28C356.086 156.87 355.664 157.329 355.117 157.657C354.57 157.985 353.924 158.149 353.178 158.149ZM353.188 156.707C353.592 156.707 353.93 156.596 354.202 156.374C354.474 156.149 354.676 155.847 354.809 155.469C354.944 155.092 355.012 154.671 355.012 154.207C355.012 153.739 354.944 153.317 354.809 152.939C354.676 152.558 354.474 152.254 354.202 152.029C353.93 151.804 353.592 151.691 353.188 151.691C352.774 151.691 352.429 151.804 352.154 152.029C351.882 152.254 351.678 152.558 351.542 152.939C351.41 153.317 351.343 153.739 351.343 154.207C351.343 154.671 351.41 155.092 351.542 155.469C351.678 155.847 351.882 156.149 352.154 156.374C352.429 156.596 352.774 156.707 353.188 156.707ZM364.612 150.364V151.756H360.098V150.364H364.612ZM361.227 158V149.643C361.227 149.129 361.333 148.701 361.545 148.36C361.76 148.019 362.049 147.763 362.41 147.594C362.771 147.425 363.172 147.341 363.613 147.341C363.925 147.341 364.201 147.366 364.443 147.415C364.685 147.465 364.864 147.51 364.98 147.55L364.622 148.942C364.546 148.919 364.45 148.895 364.334 148.872C364.218 148.846 364.089 148.832 363.946 148.832C363.611 148.832 363.374 148.914 363.235 149.076C363.099 149.235 363.031 149.464 363.031 149.762V158H361.227ZM376.477 158L373.603 147.818H375.587L377.421 155.3H377.516L379.475 147.818H381.279L383.243 155.305H383.333L385.167 147.818H387.151L384.277 158H382.458L380.419 150.856H380.34L378.296 158H376.477ZM395.597 154.788V150.364H397.397V158H395.652V156.643H395.573C395.4 157.07 395.117 157.42 394.722 157.692C394.331 157.964 393.849 158.099 393.276 158.099C392.775 158.099 392.333 157.988 391.948 157.766C391.567 157.541 391.269 157.214 391.053 156.787C390.838 156.356 390.73 155.836 390.73 155.226V150.364H392.53V154.947C392.53 155.431 392.662 155.816 392.928 156.101C393.193 156.386 393.541 156.528 393.972 156.528C394.237 156.528 394.494 156.464 394.742 156.335C394.991 156.205 395.195 156.013 395.354 155.758C395.516 155.499 395.597 155.176 395.597 154.788ZM403.825 158.154C403.341 158.154 402.905 158.068 402.518 157.896C402.133 157.72 401.828 157.461 401.603 157.12C401.381 156.779 401.27 156.358 401.27 155.857C401.27 155.426 401.349 155.07 401.508 154.788C401.668 154.507 401.885 154.281 402.16 154.112C402.435 153.943 402.745 153.816 403.089 153.729C403.437 153.64 403.797 153.575 404.168 153.536C404.616 153.489 404.979 153.448 405.257 153.411C405.535 153.371 405.738 153.312 405.864 153.232C405.993 153.149 406.057 153.022 406.057 152.849V152.82C406.057 152.445 405.946 152.155 405.724 151.95C405.502 151.744 405.182 151.641 404.765 151.641C404.324 151.641 403.974 151.737 403.716 151.93C403.461 152.122 403.288 152.349 403.199 152.611L401.518 152.372C401.651 151.908 401.87 151.52 402.175 151.209C402.48 150.894 402.852 150.659 403.293 150.503C403.734 150.344 404.221 150.264 404.755 150.264C405.123 150.264 405.489 150.307 405.854 150.393C406.218 150.48 406.551 150.622 406.853 150.821C407.155 151.017 407.396 151.283 407.579 151.621C407.764 151.96 407.857 152.382 407.857 152.889V158H406.127V156.951H406.067C405.958 157.163 405.804 157.362 405.605 157.548C405.409 157.73 405.163 157.877 404.864 157.99C404.569 158.099 404.223 158.154 403.825 158.154ZM404.293 156.832C404.654 156.832 404.967 156.76 405.232 156.618C405.497 156.472 405.701 156.28 405.844 156.041C405.99 155.803 406.062 155.542 406.062 155.261V154.361C406.006 154.407 405.91 154.45 405.774 154.49C405.641 154.53 405.492 154.565 405.327 154.594C405.161 154.624 404.997 154.651 404.834 154.674C404.672 154.697 404.531 154.717 404.412 154.734C404.143 154.77 403.903 154.83 403.691 154.913C403.479 154.996 403.311 155.112 403.189 155.261C403.066 155.406 403.005 155.595 403.005 155.827C403.005 156.159 403.126 156.409 403.368 156.578C403.61 156.747 403.918 156.832 404.293 156.832ZM416.675 153.018V154.5H412.092V153.018H416.675ZM422.748 147.818V158H420.948V147.818H422.748ZM429.176 158.154C428.692 158.154 428.256 158.068 427.869 157.896C427.484 157.72 427.179 157.461 426.954 157.12C426.732 156.779 426.621 156.358 426.621 155.857C426.621 155.426 426.7 155.07 426.859 154.788C427.018 154.507 427.236 154.281 427.511 154.112C427.786 153.943 428.096 153.816 428.44 153.729C428.788 153.64 429.148 153.575 429.519 153.536C429.967 153.489 430.33 153.448 430.608 153.411C430.886 153.371 431.089 153.312 431.214 153.232C431.344 153.149 431.408 153.022 431.408 152.849V152.82C431.408 152.445 431.297 152.155 431.075 151.95C430.853 151.744 430.533 151.641 430.116 151.641C429.675 151.641 429.325 151.737 429.067 151.93C428.812 152.122 428.639 152.349 428.55 152.611L426.869 152.372C427.002 151.908 427.221 151.52 427.526 151.209C427.831 150.894 428.203 150.659 428.644 150.503C429.085 150.344 429.572 150.264 430.106 150.264C430.474 150.264 430.84 150.307 431.205 150.393C431.569 150.48 431.902 150.622 432.204 150.821C432.505 151.017 432.747 151.283 432.93 151.621C433.115 151.96 433.208 152.382 433.208 152.889V158H431.478V156.951H431.418C431.309 157.163 431.155 157.362 430.956 157.548C430.76 157.73 430.514 157.877 430.215 157.99C429.92 158.099 429.574 158.154 429.176 158.154ZM429.643 156.832C430.005 156.832 430.318 156.76 430.583 156.618C430.848 156.472 431.052 156.28 431.195 156.041C431.34 155.803 431.413 155.542 431.413 155.261V154.361C431.357 154.407 431.261 154.45 431.125 154.49C430.992 154.53 430.843 154.565 430.678 154.594C430.512 154.624 430.348 154.651 430.185 154.674C430.023 154.697 429.882 154.717 429.763 154.734C429.494 154.77 429.254 154.83 429.042 154.913C428.83 154.996 428.662 155.112 428.54 155.261C428.417 155.406 428.356 155.595 428.356 155.827C428.356 156.159 428.477 156.409 428.719 156.578C428.961 156.747 429.269 156.832 429.643 156.832ZM437.398 158V150.364H439.197V158H437.398ZM438.303 149.28C438.018 149.28 437.772 149.185 437.567 148.996C437.361 148.804 437.259 148.574 437.259 148.305C437.259 148.034 437.361 147.803 437.567 147.614C437.772 147.422 438.018 147.326 438.303 147.326C438.591 147.326 438.836 147.422 439.038 147.614C439.244 147.803 439.347 148.034 439.347 148.305C439.347 148.574 439.244 148.804 439.038 148.996C438.836 149.185 438.591 149.28 438.303 149.28Z" fill="#4F4F4F"/>
<path d="M240 167H1200" stroke="#4F4F4F" stroke-linecap="round"/>
</svg>
